<svg xmlns="http://www.w3.org/2000/svg" viewBox="0 0 1197.67 253.49"><defs><style>.cls-1{fill:#fff;}</style></defs><title>LogoText</title><g id="Endless_V2" data-name="Endless V2"><path class="cls-1" d="M12.36,43H45.42V227.09h98.85v12.63H12.36Z"/><path class="cls-1" d="M194.78,88V196a21.78,21.78,0,0,0,2.66,10.55,29.4,29.4,0,0,0,7.14,8.64,34.24,34.24,0,0,0,10.55,5.9,38.63,38.63,0,0,0,13.05,2.16,27.61,27.61,0,0,0,9.63-1.91,45,45,0,0,0,10-5.23,60.38,60.38,0,0,0,9.14-7.81,47.19,47.19,0,0,0,7.14-9.47V88h30.07V239.72H264.06V211.31a63.61,63.61,0,0,1-10,12.3,74.14,74.14,0,0,1-13,10.13,71.25,71.25,0,0,1-14.45,6.81,44,44,0,0,1-14,2.49,46.94,46.94,0,0,1-18.69-3.73,48.71,48.71,0,0,1-15.2-10.14,47.48,47.48,0,0,1-10.22-14.95,45,45,0,0,1-3.74-18.2V88Z"/><path class="cls-1" d="M329.36,88h30.07v28.41a116.46,116.46,0,0,1,28-22.09A89,89,0,0,1,403,87.45a46.93,46.93,0,0,1,14.62-2.57,41.48,41.48,0,0,1,13.62,2.41A47.11,47.11,0,0,1,454,104.15a31.49,31.49,0,0,1,5.57,12.79A50.35,50.35,0,0,1,470,104.48a76.56,76.56,0,0,1,14.63-10.13,87,87,0,0,1,16.94-6.9,63.05,63.05,0,0,1,17.53-2.57,35,35,0,0,1,16,3.82A43.38,43.38,0,0,1,548.33,99a51.09,51.09,0,0,1,12.29,33.56V239.72H530.39V136.88a33.91,33.91,0,0,0-2.16-12.13,33.34,33.34,0,0,0-5.9-10,28.26,28.26,0,0,0-8.64-6.81,22.62,22.62,0,0,0-10.38-2.49,50.64,50.64,0,0,0-12.63,1.66,59.07,59.07,0,0,0-12.3,4.65,61.62,61.62,0,0,0-10.63,6.9,34.63,34.63,0,0,0-7.64,8.39V239.72H430V136.88a32.5,32.5,0,0,0-2.25-12.13,34.4,34.4,0,0,0-6-10,28,28,0,0,0-8.72-6.81,23.11,23.11,0,0,0-10.47-2.49,43.23,43.23,0,0,0-11.79,1.74A67.12,67.12,0,0,0,378.78,112a65.83,65.83,0,0,0-10.88,6.89,52.32,52.32,0,0,0-8.47,8.23V239.72H329.36Z"/><path class="cls-1" d="M707,239.72H676.76V219q-5.32,4.16-10.47,8.39a84,84,0,0,1-11.13,7.73,63,63,0,0,1-13.29,5.73,57.82,57.82,0,0,1-17,2.24,43.24,43.24,0,0,1-16.2-2.9,34.5,34.5,0,0,1-19.93-20,40.53,40.53,0,0,1-2.75-15A38.77,38.77,0,0,1,590,187.55a49,49,0,0,1,10.63-14,77,77,0,0,1,15.62-11,153.53,153.53,0,0,1,19-8.64Q645.36,150,656,147.1t20.77-5.57v-9.47a62.48,62.48,0,0,0-2.08-17.36,30.36,30.36,0,0,0-5.9-11.47,21.65,21.65,0,0,0-9.22-6.31A36.56,36.56,0,0,0,647.35,95a33.12,33.12,0,0,0-12.46,2,19.43,19.43,0,0,0-7.56,5.24,17.75,17.75,0,0,0-3.74,7.31,35.35,35.35,0,0,0-1,8.39,42.84,42.84,0,0,1-.67,7.64,19.62,19.62,0,0,1-2.32,6.48,12.38,12.38,0,0,1-4.57,4.49,14.87,14.87,0,0,1-7.4,1.66,14.38,14.38,0,0,1-11.38-5.07,18.7,18.7,0,0,1-4.4-12.71,23,23,0,0,1,4.9-14,42.22,42.22,0,0,1,13.29-11.3,77.37,77.37,0,0,1,19.52-7.47A97.53,97.53,0,0,1,653,84.88q15,0,25.25,2.9T695,95.93a29.77,29.77,0,0,1,9.22,12.7A46.82,46.82,0,0,1,707,125.25Zm-30.23-88.39a201.74,201.74,0,0,0-20.44,7.56,131.08,131.08,0,0,0-19.6,10.39,64.19,64.19,0,0,0-14.79,12.87q-5.82,7.07-5.81,15a27,27,0,0,0,2.07,10.46,29.74,29.74,0,0,0,5.49,8.73,27.21,27.21,0,0,0,7.8,6,20.13,20.13,0,0,0,9.22,2.24,34.44,34.44,0,0,0,9.72-1.33,48,48,0,0,0,8.89-3.57,73.33,73.33,0,0,0,8.64-5.32c2.88-2,5.82-4.18,8.81-6.39Z"/><path class="cls-1" d="M795.71,232.58a33.08,33.08,0,0,0,11.39-1.91,29.66,29.66,0,0,0,9-5.07,24.93,24.93,0,0,0,5.9-7.15,17.26,17.26,0,0,0,2.15-8.3A21.12,21.12,0,0,0,820.64,198a37.69,37.69,0,0,0-9.23-9.31,79.32,79.32,0,0,0-13-7.55q-7.3-3.41-14.87-7t-14.87-7.73a65.62,65.62,0,0,1-13-9.63,44.36,44.36,0,0,1-9.22-12.63,38.18,38.18,0,0,1-3.49-17,37.24,37.24,0,0,1,3.91-16.94,40.8,40.8,0,0,1,10.8-13.46A50.93,50.93,0,0,1,774,88a65.43,65.43,0,0,1,20.77-3.15A88.06,88.06,0,0,1,808.84,86,47,47,0,0,1,821.72,90a55.47,55.47,0,0,1,12.54,8.55,100.45,100.45,0,0,1,13.12,14.54l-11,9.8q-8.64-14.11-19.36-21a42.36,42.36,0,0,0-34.64-5.32,30.18,30.18,0,0,0-9.13,4.32,20.05,20.05,0,0,0-5.9,6.4,15.48,15.48,0,0,0-2.08,7.8A19.13,19.13,0,0,0,769.13,127a40.52,40.52,0,0,0,10,9.22,88.83,88.83,0,0,0,14.13,7.56q7.89,3.42,16.19,7t16.2,7.73A74.59,74.59,0,0,1,839.83,168a44,44,0,0,1,10,12.54,34.82,34.82,0,0,1,3.82,16.62,45.53,45.53,0,0,1-3.57,18,38.88,38.88,0,0,1-10.8,14.54,53.22,53.22,0,0,1-18.11,9.72Q810.33,243,795.71,243A89,89,0,0,1,782.09,242,60.2,60.2,0,0,1,768,237.89a62.81,62.81,0,0,1-14.29-8.55,78.3,78.3,0,0,1-13.95-14.54L752,203.67A127.25,127.25,0,0,0,762.57,217a57.93,57.93,0,0,0,10.3,9,38.11,38.11,0,0,0,10.8,5.07A44.09,44.09,0,0,0,795.71,232.58Z"/><path class="cls-1" d="M964.85,220.45a45,45,0,0,1-16,16.53q-10,6.06-24.67,6.06a31.93,31.93,0,0,1-13.29-2.57,24.55,24.55,0,0,1-9.3-7.23,30.57,30.57,0,0,1-5.4-11.13,55.31,55.31,0,0,1-1.75-14.46V100.83H868.15V93.35q12.63,0,20.85-4.57a38.09,38.09,0,0,0,13.46-12.46A65.54,65.54,0,0,0,910.68,58q3-10.38,5.15-21.84h8.64V88h34.06v12.8H924.47V207.65a15.69,15.69,0,0,0,4.74,11.55,15.9,15.9,0,0,0,11.71,4.74,17.69,17.69,0,0,0,9.31-2.5,27.42,27.42,0,0,0,7.14-6.14Z"/><path class="cls-1" d="M999.24,10.44a19.69,19.69,0,0,1,6.73,1.17,16.45,16.45,0,0,1,9.3,8.06,12.67,12.67,0,0,1,1.41,5.89,12.39,12.39,0,0,1-1.41,5.74,16.6,16.6,0,0,1-3.74,4.81,17.77,17.77,0,0,1-5.56,3.33,18.63,18.63,0,0,1-6.73,1.24,18.32,18.32,0,0,1-12.13-4.57,16.6,16.6,0,0,1-3.74-4.81A12.39,12.39,0,0,1,982,25.56a12.67,12.67,0,0,1,1.41-5.89,16.51,16.51,0,0,1,3.74-4.82,16.75,16.75,0,0,1,5.48-3.24A19,19,0,0,1,999.24,10.44ZM984.62,93.52l21.1-8.64h8.8V239.72h-29.9Z"/><path class="cls-1" d="M1115.7,243a66.59,66.59,0,0,1-27.91-5.89A72.55,72.55,0,0,1,1065.11,221a75.8,75.8,0,0,1-15.28-23.84,76.57,76.57,0,0,1-5.57-29.24,85.38,85.38,0,0,1,6.15-32.32,83.34,83.34,0,0,1,16.78-26.41,79.77,79.77,0,0,1,25-17.78,72.85,72.85,0,0,1,30.66-6.56,92.34,92.34,0,0,1,23.51,2.82,68.6,68.6,0,0,1,18.52,7.64A37.87,37.87,0,0,1,1177,106.81a25.73,25.73,0,0,1,4.32,14.29,12.55,12.55,0,0,1-1.75,6.47,18,18,0,0,1-4.65,5.24,24.86,24.86,0,0,1-6.48,3.57,20.48,20.48,0,0,1-7.22,1.33,18.59,18.59,0,0,1-7.32-1.41,16.11,16.11,0,0,1-5.56-3.82,18.06,18.06,0,0,1-3.49-5.4,15.5,15.5,0,0,1-1.25-6,43,43,0,0,0-1.08-9.89,18.11,18.11,0,0,0-4-7.89,19.69,19.69,0,0,0-7.81-5.24,35,35,0,0,0-12.54-1.91,40,40,0,0,0-18.45,4.16A42,42,0,0,0,1086,111.54a50.66,50.66,0,0,0-8.64,16.62,67.86,67.86,0,0,0-3,20.35,99.44,99.44,0,0,0,3.74,27.5,73.33,73.33,0,0,0,10.72,22.76,54.17,54.17,0,0,0,16.78,15.45,42.32,42.32,0,0,0,21.76,5.73,46.35,46.35,0,0,0,18.36-3.32,43.42,43.42,0,0,0,13.46-9,55.49,55.49,0,0,0,9.8-13.12,129.09,129.09,0,0,0,7.23-15.78l9.14,3.65a105.23,105.23,0,0,1-10.3,25.5,76,76,0,0,1-15.29,19,62.91,62.91,0,0,1-19.94,12A68.34,68.34,0,0,1,1115.7,243Z"/><path class="cls-1" d="M12.36,43H45.42V227.09h98.85v12.63H12.36Z"/><path class="cls-1" d="M194.78,88V196a21.78,21.78,0,0,0,2.66,10.55,29.4,29.4,0,0,0,7.14,8.64,34.24,34.24,0,0,0,10.55,5.9,38.63,38.63,0,0,0,13.05,2.16,27.61,27.61,0,0,0,9.63-1.91,45,45,0,0,0,10-5.23,60.38,60.38,0,0,0,9.14-7.81,47.19,47.19,0,0,0,7.14-9.47V88h30.07V239.72H264.06V211.31a63.61,63.61,0,0,1-10,12.3,74.14,74.14,0,0,1-13,10.13,71.25,71.25,0,0,1-14.45,6.81,44,44,0,0,1-14,2.49,46.94,46.94,0,0,1-18.69-3.73,48.71,48.71,0,0,1-15.2-10.14,47.48,47.48,0,0,1-10.22-14.95,45,45,0,0,1-3.74-18.2V88Z"/><path class="cls-1" d="M329.36,88h30.07v28.41a116.46,116.46,0,0,1,28-22.09A89,89,0,0,1,403,87.45a46.93,46.93,0,0,1,14.62-2.57,41.48,41.48,0,0,1,13.62,2.41A47.11,47.11,0,0,1,454,104.15a31.49,31.49,0,0,1,5.57,12.79A50.35,50.35,0,0,1,470,104.48a76.56,76.56,0,0,1,14.63-10.13,87,87,0,0,1,16.94-6.9,63.05,63.05,0,0,1,17.53-2.57,35,35,0,0,1,16,3.82A43.38,43.38,0,0,1,548.33,99a51.09,51.09,0,0,1,12.29,33.56V239.72H530.39V136.88a33.91,33.91,0,0,0-2.16-12.13,33.34,33.34,0,0,0-5.9-10,28.26,28.26,0,0,0-8.64-6.81,22.62,22.62,0,0,0-10.38-2.49,50.64,50.64,0,0,0-12.63,1.66,59.07,59.07,0,0,0-12.3,4.65,61.62,61.62,0,0,0-10.63,6.9,34.63,34.63,0,0,0-7.64,8.39V239.72H430V136.88a32.5,32.5,0,0,0-2.25-12.13,34.4,34.4,0,0,0-6-10,28,28,0,0,0-8.72-6.81,23.11,23.11,0,0,0-10.47-2.49,43.23,43.23,0,0,0-11.79,1.74A67.12,67.12,0,0,0,378.78,112a65.83,65.83,0,0,0-10.88,6.89,52.32,52.32,0,0,0-8.47,8.23V239.72H329.36Z"/><path class="cls-1" d="M707,239.72H676.76V219q-5.32,4.16-10.47,8.39a84,84,0,0,1-11.13,7.73,63,63,0,0,1-13.29,5.73,57.82,57.82,0,0,1-17,2.24,43.24,43.24,0,0,1-16.2-2.9,34.5,34.5,0,0,1-19.93-20,40.53,40.53,0,0,1-2.75-15A38.77,38.77,0,0,1,590,187.55a49,49,0,0,1,10.63-14,77,77,0,0,1,15.62-11,153.53,153.53,0,0,1,19-8.64Q645.36,150,656,147.1t20.77-5.57v-9.47a62.48,62.48,0,0,0-2.08-17.36,30.36,30.36,0,0,0-5.9-11.47,21.65,21.65,0,0,0-9.22-6.31A36.56,36.56,0,0,0,647.35,95a33.12,33.12,0,0,0-12.46,2,19.43,19.43,0,0,0-7.56,5.24,17.75,17.75,0,0,0-3.74,7.31,35.35,35.35,0,0,0-1,8.39,42.84,42.84,0,0,1-.67,7.64,19.62,19.62,0,0,1-2.32,6.48,12.38,12.38,0,0,1-4.57,4.49,14.87,14.87,0,0,1-7.4,1.66,14.38,14.38,0,0,1-11.38-5.07,18.7,18.7,0,0,1-4.4-12.71,23,23,0,0,1,4.9-14,42.22,42.22,0,0,1,13.29-11.3,77.37,77.37,0,0,1,19.52-7.47A97.53,97.53,0,0,1,653,84.88q15,0,25.25,2.9T695,95.93a29.77,29.77,0,0,1,9.22,12.7A46.82,46.82,0,0,1,707,125.25Zm-30.23-88.39a201.74,201.74,0,0,0-20.44,7.56,131.08,131.08,0,0,0-19.6,10.39,64.19,64.19,0,0,0-14.79,12.87q-5.82,7.07-5.81,15a27,27,0,0,0,2.07,10.46,29.74,29.74,0,0,0,5.49,8.73,27.21,27.21,0,0,0,7.8,6,20.13,20.13,0,0,0,9.22,2.24,34.44,34.44,0,0,0,9.72-1.33,48,48,0,0,0,8.89-3.57,73.33,73.33,0,0,0,8.64-5.32c2.88-2,5.82-4.18,8.81-6.39Z"/><path class="cls-1" d="M795.71,232.58a33.08,33.08,0,0,0,11.39-1.91,29.66,29.66,0,0,0,9-5.07,24.93,24.93,0,0,0,5.9-7.15,17.26,17.26,0,0,0,2.15-8.3A21.12,21.12,0,0,0,820.64,198a37.69,37.69,0,0,0-9.23-9.31,79.32,79.32,0,0,0-13-7.55q-7.3-3.41-14.87-7t-14.87-7.73a65.62,65.62,0,0,1-13-9.63,44.36,44.36,0,0,1-9.22-12.63,38.18,38.18,0,0,1-3.49-17,37.24,37.24,0,0,1,3.91-16.94,40.8,40.8,0,0,1,10.8-13.46A50.93,50.93,0,0,1,774,88a65.43,65.43,0,0,1,20.77-3.15A88.06,88.06,0,0,1,808.84,86,47,47,0,0,1,821.72,90a55.47,55.47,0,0,1,12.54,8.55,100.45,100.45,0,0,1,13.12,14.54l-11,9.8q-8.64-14.11-19.36-21a42.36,42.36,0,0,0-34.64-5.32,30.18,30.18,0,0,0-9.13,4.32,20.05,20.05,0,0,0-5.9,6.4,15.48,15.48,0,0,0-2.08,7.8A19.13,19.13,0,0,0,769.13,127a40.52,40.52,0,0,0,10,9.22,88.83,88.83,0,0,0,14.13,7.56q7.89,3.42,16.19,7t16.2,7.73A74.59,74.59,0,0,1,839.83,168a44,44,0,0,1,10,12.54,34.82,34.82,0,0,1,3.82,16.62,45.53,45.53,0,0,1-3.57,18,38.88,38.88,0,0,1-10.8,14.54,53.22,53.22,0,0,1-18.11,9.72Q810.33,243,795.71,243A89,89,0,0,1,782.09,242,60.2,60.2,0,0,1,768,237.89a62.81,62.81,0,0,1-14.29-8.55,78.3,78.3,0,0,1-13.95-14.54L752,203.67A127.25,127.25,0,0,0,762.57,217a57.93,57.93,0,0,0,10.3,9,38.11,38.11,0,0,0,10.8,5.07A44.09,44.09,0,0,0,795.71,232.58Z"/><path class="cls-1" d="M964.85,220.45a45,45,0,0,1-16,16.53q-10,6.06-24.67,6.06a31.93,31.93,0,0,1-13.29-2.57,24.55,24.55,0,0,1-9.3-7.23,30.57,30.57,0,0,1-5.4-11.13,55.31,55.31,0,0,1-1.75-14.46V100.83H868.15V93.35q12.63,0,20.85-4.57a38.09,38.09,0,0,0,13.46-12.46A65.54,65.54,0,0,0,910.68,58q3-10.38,5.15-21.84h8.64V88h34.06v12.8H924.47V207.65a15.69,15.69,0,0,0,4.74,11.55,15.9,15.9,0,0,0,11.71,4.74,17.69,17.69,0,0,0,9.31-2.5,27.42,27.42,0,0,0,7.14-6.14Z"/><path class="cls-1" d="M999.24,10.44a19.69,19.69,0,0,1,6.73,1.17,16.45,16.45,0,0,1,9.3,8.06,12.67,12.67,0,0,1,1.41,5.89,12.39,12.39,0,0,1-1.41,5.74,16.6,16.6,0,0,1-3.74,4.81,17.77,17.77,0,0,1-5.56,3.33,18.63,18.63,0,0,1-6.73,1.24,18.32,18.32,0,0,1-12.13-4.57,16.6,16.6,0,0,1-3.74-4.81A12.39,12.39,0,0,1,982,25.56a12.67,12.67,0,0,1,1.41-5.89,16.51,16.51,0,0,1,3.74-4.82,16.75,16.75,0,0,1,5.48-3.24A19,19,0,0,1,999.24,10.44ZM984.62,93.52l21.1-8.64h8.8V239.72h-29.9Z"/><path class="cls-1" d="M1115.7,243a66.59,66.59,0,0,1-27.91-5.89A72.55,72.55,0,0,1,1065.11,221a75.8,75.8,0,0,1-15.28-23.84,76.57,76.57,0,0,1-5.57-29.24,85.38,85.38,0,0,1,6.15-32.32,83.34,83.34,0,0,1,16.78-26.41,79.77,79.77,0,0,1,25-17.78,72.85,72.85,0,0,1,30.66-6.56,92.34,92.34,0,0,1,23.51,2.82,68.6,68.6,0,0,1,18.52,7.64A37.87,37.87,0,0,1,1177,106.81a25.73,25.73,0,0,1,4.32,14.29,12.55,12.55,0,0,1-1.75,6.47,18,18,0,0,1-4.65,5.24,24.86,24.86,0,0,1-6.48,3.57,20.48,20.48,0,0,1-7.22,1.33,18.59,18.59,0,0,1-7.32-1.41,16.11,16.11,0,0,1-5.56-3.82,18.06,18.06,0,0,1-3.49-5.4,15.5,15.5,0,0,1-1.25-6,43,43,0,0,0-1.08-9.89,18.11,18.11,0,0,0-4-7.89,19.69,19.69,0,0,0-7.81-5.24,35,35,0,0,0-12.54-1.91,40,40,0,0,0-18.45,4.16A42,42,0,0,0,1086,111.54a50.66,50.66,0,0,0-8.64,16.62,67.86,67.86,0,0,0-3,20.35,99.44,99.44,0,0,0,3.74,27.5,73.33,73.33,0,0,0,10.72,22.76,54.17,54.17,0,0,0,16.78,15.45,42.32,42.32,0,0,0,21.76,5.73,46.35,46.35,0,0,0,18.36-3.32,43.42,43.42,0,0,0,13.46-9,55.49,55.49,0,0,0,9.8-13.12,129.09,129.09,0,0,0,7.23-15.78l9.14,3.65a105.23,105.23,0,0,1-10.3,25.5,76,76,0,0,1-15.29,19,62.91,62.91,0,0,1-19.94,12A68.34,68.34,0,0,1,1115.7,243Z"/></g></svg>