<svg xmlns="http://www.w3.org/2000/svg" xmlns:xlink="http://www.w3.org/1999/xlink" viewBox="0 0 391.95 147.07"><defs><style>.cls-1{fill:url(#radial-gradient);}.cls-2{fill:none;}.cls-3{clip-path:url(#clip-path);}.cls-4{fill:url(#radial-gradient-3);}.cls-5{fill:url(#radial-gradient-4);}.cls-6{clip-path:url(#clip-path-2);}.cls-7{fill:url(#radial-gradient-5);}.cls-8{fill:url(#radial-gradient-6);}</style><radialGradient id="radial-gradient" cx="196.01" cy="193.18" r="0.5" gradientUnits="userSpaceOnUse"><stop offset="0" stop-color="#e0dc5b"/><stop offset="1" stop-color="#398b0a"/></radialGradient><clipPath id="clip-path"><path class="cls-1" d="M86.38,70v33.11a6.6,6.6,0,0,0,.82,3.23A8.8,8.8,0,0,0,89.39,109a10.25,10.25,0,0,0,3.23,1.81,11.86,11.86,0,0,0,4,.66,8.47,8.47,0,0,0,2.95-.58,13.61,13.61,0,0,0,3.06-1.61,17.83,17.83,0,0,0,2.8-2.39,14.05,14.05,0,0,0,2.19-2.91V70h9.22v46.51h-9.22v-8.71a19.28,19.28,0,0,1-3.05,3.76,23,23,0,0,1-4,3.11,21.72,21.72,0,0,1-4.43,2.09,13.47,13.47,0,0,1-4.31.76,14.44,14.44,0,0,1-5.73-1.14,15,15,0,0,1-4.66-3.11,14.57,14.57,0,0,1-3.13-4.58,13.7,13.7,0,0,1-1.15-5.58V70Zm41.26,0h9.22v8.71A35.34,35.34,0,0,1,145.45,72a27.6,27.6,0,0,1,4.76-2.11,14.27,14.27,0,0,1,4.48-.79,12.85,12.85,0,0,1,4.18.74,14.43,14.43,0,0,1,7,5.17,9.56,9.56,0,0,1,1.71,3.92,15.36,15.36,0,0,1,3.18-3.82A23.58,23.58,0,0,1,175.25,72a27,27,0,0,1,5.19-2.11,19.15,19.15,0,0,1,5.38-.79,10.73,10.73,0,0,1,4.91,1.17,13.22,13.22,0,0,1,4.05,3.16A15.21,15.21,0,0,1,197.53,78a15.57,15.57,0,0,1,1,5.65v32.86h-9.27V85a10.31,10.31,0,0,0-.66-3.71,10.16,10.16,0,0,0-1.81-3.06,8.73,8.73,0,0,0-2.65-2.09,6.9,6.9,0,0,0-3.18-.76,15.48,15.48,0,0,0-3.87.51,17.76,17.76,0,0,0-3.77,1.42,18.46,18.46,0,0,0-3.26,2.12A10.42,10.42,0,0,0,167.73,82v34.54h-9.22V85a10.11,10.11,0,0,0-.68-3.71A10.44,10.44,0,0,0,156,78.24a8.57,8.57,0,0,0-2.67-2.09,7.08,7.08,0,0,0-3.21-.76,13.11,13.11,0,0,0-3.62.53,20.62,20.62,0,0,0-3.69,1.45,19.94,19.94,0,0,0-3.34,2.12,16.45,16.45,0,0,0-2.6,2.52v34.54h-9.22Zm115.79,46.51h-9.27v-6.37c-1.09.85-2.16,1.71-3.21,2.57a25.21,25.21,0,0,1-3.41,2.37,19.61,19.61,0,0,1-4.08,1.76,17.65,17.65,0,0,1-5.19.68,13.1,13.1,0,0,1-5-.89,10.74,10.74,0,0,1-3.74-2.44,10.93,10.93,0,0,1-2.37-3.69,12.47,12.47,0,0,1-.84-4.59,11.9,11.9,0,0,1,1.19-5.4,15.11,15.11,0,0,1,3.26-4.3,23.08,23.08,0,0,1,4.79-3.39,46.44,46.44,0,0,1,5.83-2.65q3.12-1.17,6.37-2.06c2.17-.6,4.3-1.17,6.37-1.71v-2.9a19,19,0,0,0-.64-5.33,9.1,9.1,0,0,0-1.81-3.51,6.6,6.6,0,0,0-2.82-1.94,11.23,11.23,0,0,0-3.75-.58,10.08,10.08,0,0,0-3.82.61,6,6,0,0,0-2.32,1.6,5.37,5.37,0,0,0-1.14,2.24,10.53,10.53,0,0,0-.31,2.58,13.68,13.68,0,0,1-.2,2.34,6.1,6.1,0,0,1-.71,2,3.83,3.83,0,0,1-1.4,1.37,4.54,4.54,0,0,1-2.27.51,4.42,4.42,0,0,1-3.49-1.55,5.75,5.75,0,0,1-1.35-3.9,7.05,7.05,0,0,1,1.5-4.3,12.9,12.9,0,0,1,4.08-3.47,23.5,23.5,0,0,1,6-2.29,30,30,0,0,1,7.19-.84,29.1,29.1,0,0,1,7.74.89,14.16,14.16,0,0,1,5.12,2.5,9.16,9.16,0,0,1,2.82,3.89,14.29,14.29,0,0,1,.87,5.1Zm-9.27-27.1a62.51,62.51,0,0,0-6.27,2.31,41.15,41.15,0,0,0-6,3.19,19.82,19.82,0,0,0-4.53,3.94,7.16,7.16,0,0,0-1.78,4.62,8.35,8.35,0,0,0,.63,3.21,9.45,9.45,0,0,0,1.68,2.67,8.51,8.51,0,0,0,2.4,1.83,6.13,6.13,0,0,0,2.83.69,10.37,10.37,0,0,0,3-.41,14.72,14.72,0,0,0,2.72-1.09,22.3,22.3,0,0,0,2.65-1.63c.88-.63,1.78-1.28,2.7-2Zm36.47,24.91a10.1,10.1,0,0,0,3.49-.59,9,9,0,0,0,2.75-1.55,7.61,7.61,0,0,0,1.81-2.19,5.33,5.33,0,0,0,.66-2.55,6.41,6.41,0,0,0-1.07-3.72,11.53,11.53,0,0,0-2.82-2.85,24.58,24.58,0,0,0-4-2.32l-4.56-2.14q-2.33-1.1-4.56-2.37a20.29,20.29,0,0,1-4-3,13.69,13.69,0,0,1-2.83-3.87,11.8,11.8,0,0,1-1.07-5.2,11.45,11.45,0,0,1,1.2-5.2,12.54,12.54,0,0,1,3.31-4.12,15.4,15.4,0,0,1,5-2.7,19.93,19.93,0,0,1,6.37-1,27.09,27.09,0,0,1,4.33.33,14.35,14.35,0,0,1,3.94,1.25,17.08,17.08,0,0,1,3.85,2.62,31.52,31.52,0,0,1,4,4.46l-3.37,3a19.63,19.63,0,0,0-5.93-6.44,13,13,0,0,0-10.62-1.63,9.21,9.21,0,0,0-2.8,1.33A6.1,6.1,0,0,0,262,76a4.68,4.68,0,0,0-.64,2.39A5.87,5.87,0,0,0,262.48,82a12.44,12.44,0,0,0,3.08,2.83,27.61,27.61,0,0,0,4.34,2.32l5,2.14c1.7.73,3.35,1.52,5,2.37a22.83,22.83,0,0,1,4.33,2.93,13.41,13.41,0,0,1,3.08,3.84,10.66,10.66,0,0,1,1.17,5.1,13.94,13.94,0,0,1-1.09,5.52,12,12,0,0,1-3.31,4.46,16.26,16.26,0,0,1-5.56,3,25.11,25.11,0,0,1-7.82,1.09,27.22,27.22,0,0,1-4.17-.33,18.5,18.5,0,0,1-4.33-1.24,19.35,19.35,0,0,1-4.38-2.63,23.74,23.74,0,0,1-4.28-4.45l3.77-3.42a38.28,38.28,0,0,0,3.23,4.08,18.22,18.22,0,0,0,3.16,2.75,11.7,11.7,0,0,0,3.31,1.55A13.6,13.6,0,0,0,270.63,114.36Zm51.86-3.72a13.81,13.81,0,0,1-4.91,5.07,14.52,14.52,0,0,1-7.57,1.85,9.82,9.82,0,0,1-4.07-.78,7.6,7.6,0,0,1-2.86-2.22,9.43,9.43,0,0,1-1.65-3.41,16.91,16.91,0,0,1-.54-4.43V74h-8.05V71.67a13.13,13.13,0,0,0,6.4-1.4,11.78,11.78,0,0,0,4.12-3.82,20.15,20.15,0,0,0,2.52-5.61c.62-2.12,1.14-4.35,1.58-6.7h2.65V70h10.45V74H310.11v32.76a4.85,4.85,0,0,0,1.45,3.54,4.92,4.92,0,0,0,3.6,1.45,5.44,5.44,0,0,0,2.85-.77,8.45,8.45,0,0,0,2.19-1.88Zm6.06-38.92L335,69.07h2.7v47.48h-9.17Zm16.68-24c-7.36,3.26-12.34,9.1-16.63,15.6-.34,0-.38-.19-.44-.34a10.15,10.15,0,0,1,.85-10c2.23-3.45,5.57-5.39,9.24-6.85a33.28,33.28,0,0,1,15.12-2,3.47,3.47,0,0,1,.55.08.42.42,0,0,1,.27.23c.06.19-.13.25-.27.3-3.81,1.42-5.78,4.68-7.75,7.9-1.75,2.86-3.16,5.92-5.12,8.65a12.82,12.82,0,0,1-4.14,4,7,7,0,0,1-5.42.59,1.44,1.44,0,0,0-1.44.28,5.82,5.82,0,0,1-2.17,1.35A20.68,20.68,0,0,1,330.23,63a69.1,69.1,0,0,1,7.48-9.39,35.27,35.27,0,0,1,3.67-3.09c.24-.2.52-.34.64-.65s.32-.46.47-.37c.81.48,1-.3,1.36-.67S344.89,48.21,345.23,47.67Zm23.52,69.89a20.5,20.5,0,0,1-8.56-1.8,22.45,22.45,0,0,1-7-4.94,23.51,23.51,0,0,1-6.39-16.28,26.13,26.13,0,0,1,1.89-9.91,25.45,25.45,0,0,1,5.14-8.1,24.41,24.41,0,0,1,7.67-5.45,22.35,22.35,0,0,1,9.4-2,28.08,28.08,0,0,1,7.2.87,20.46,20.46,0,0,1,5.68,2.34,11.55,11.55,0,0,1,3.72,3.51,7.86,7.86,0,0,1,1.33,4.39,3.83,3.83,0,0,1-.54,2,5.55,5.55,0,0,1-1.42,1.61,7.83,7.83,0,0,1-2,1.09,6.36,6.36,0,0,1-2.22.41,5.84,5.84,0,0,1-2.24-.43,4.75,4.75,0,0,1-1.7-1.18A5.38,5.38,0,0,1,377.69,82a4.63,4.63,0,0,1-.39-1.83,13.3,13.3,0,0,0-.33-3,5.61,5.61,0,0,0-1.22-2.42,6.1,6.1,0,0,0-2.4-1.6,10.69,10.69,0,0,0-3.84-.59,12.28,12.28,0,0,0-5.66,1.28,12.7,12.7,0,0,0-4.22,3.44A15.3,15.3,0,0,0,357,82.34a20.79,20.79,0,0,0-.92,6.24A30.22,30.22,0,0,0,357.21,97a22.51,22.51,0,0,0,3.28,7,16.7,16.7,0,0,0,5.15,4.74,13,13,0,0,0,6.67,1.75,14.37,14.37,0,0,0,5.63-1,13.5,13.5,0,0,0,4.13-2.75,17.13,17.13,0,0,0,3-4,40.35,40.35,0,0,0,2.22-4.84l2.8,1.12a31.89,31.89,0,0,1-3.16,7.82,23.1,23.1,0,0,1-4.69,5.83,19.19,19.19,0,0,1-6.11,3.67A20.92,20.92,0,0,1,368.75,117.56Z"/></clipPath><radialGradient id="radial-gradient-3" cx="312.44" cy="36.57" fx="386.8372856368332" fy="-42.777031880103365" r="149.96" gradientTransform="matrix(1.46, 0.27, -0.13, 0.97, -230.61, -33.2)" gradientUnits="userSpaceOnUse"><stop offset="0" stop-color="#eadf8a"/><stop offset="0.12" stop-color="#deda81"/><stop offset="0.34" stop-color="#becd69"/><stop offset="0.63" stop-color="#8ab843"/><stop offset="0.97" stop-color="#449b0e"/><stop offset="0.99" stop-color="#3f990b"/></radialGradient><radialGradient id="radial-gradient-4" cx="58.35" cy="124.98" r="31.03" gradientTransform="translate(0 -62.49) scale(1 1.5)" gradientUnits="userSpaceOnUse"><stop offset="0" stop-color="#eadf8a"/><stop offset="0.91" stop-color="#398b0a"/></radialGradient><clipPath id="clip-path-2"><path class="cls-2" d="M33.13,27.32c3.92,18.43,3,36.7-.5,55A240.63,240.63,0,0,1,16.37,135a4,4,0,0,1-2.5,2.41c-2.09.71-4.13,1.58-6.45,2.48a41.52,41.52,0,0,1,2.84-6.45c1.59-3.45,3.26-6.86,4.94-10.26.36-.74.59-1.22-.41-1.65-12-5.11-13.1-16-11.6-26.14,1.26-8.48,4.22-16.49,7.14-24.5,4.31-11.8,9.52-23.27,13.08-35.34C25.2,29.48,26.68,23.36,26.6,17c-.06-4.75-.84-9.28-4-13.1-.12-.15-.11-.4-.26-1C27.66,6,31.67,10,35.52,14.16,47.38,26.89,55.44,41.62,58.24,58.93c2.32,14.37.65,28.18-6.82,40.95A51.14,51.14,0,0,1,32.61,118.5a68.24,68.24,0,0,1-6.12,3.09c1.66-5.57,3.29-10.73,4.73-16,4.12-14.87,7.22-29.92,7.29-45.45A115.75,115.75,0,0,0,34.18,29C34,28.3,34,28.3,33.13,27.32Z"/></clipPath><radialGradient id="radial-gradient-5" cx="30.55" cy="71.96" r="57.28" gradientUnits="userSpaceOnUse"><stop offset="0" stop-color="#badf8a"/><stop offset="0.07" stop-color="#a0ce70"/><stop offset="0.17" stop-color="#81ba51"/><stop offset="0.28" stop-color="#66a937"/><stop offset="0.41" stop-color="#529b23"/><stop offset="0.55" stop-color="#449215"/><stop offset="0.72" stop-color="#3c8d0c"/><stop offset="1" stop-color="#398b0a"/></radialGradient><radialGradient id="radial-gradient-6" cx="33.57" cy="76.46" r="57.28" gradientTransform="translate(0 -38.23) scale(1 1.5)" gradientUnits="userSpaceOnUse"><stop offset="0" stop-color="#eadf8a"/><stop offset="0.12" stop-color="#cfd276"/><stop offset="0.78" stop-color="#398b0a"/></radialGradient></defs><title>LumasticV5</title><g id="Text"><path class="cls-1" d="M86.38,70v33.11a6.6,6.6,0,0,0,.82,3.23A8.8,8.8,0,0,0,89.39,109a10.25,10.25,0,0,0,3.23,1.81,11.86,11.86,0,0,0,4,.66,8.47,8.47,0,0,0,2.95-.58,13.61,13.61,0,0,0,3.06-1.61,17.83,17.83,0,0,0,2.8-2.39,14.05,14.05,0,0,0,2.19-2.91V70h9.22v46.51h-9.22v-8.71a19.28,19.28,0,0,1-3.05,3.76,23,23,0,0,1-4,3.11,21.72,21.72,0,0,1-4.43,2.09,13.47,13.47,0,0,1-4.31.76,14.44,14.44,0,0,1-5.73-1.14,15,15,0,0,1-4.66-3.11,14.57,14.57,0,0,1-3.13-4.58,13.7,13.7,0,0,1-1.15-5.58V70Zm41.26,0h9.22v8.71A35.34,35.34,0,0,1,145.45,72a27.6,27.6,0,0,1,4.76-2.11,14.27,14.27,0,0,1,4.48-.79,12.85,12.85,0,0,1,4.18.74,14.43,14.43,0,0,1,7,5.17,9.56,9.56,0,0,1,1.71,3.92,15.36,15.36,0,0,1,3.18-3.82A23.58,23.58,0,0,1,175.25,72a27,27,0,0,1,5.19-2.11,19.15,19.15,0,0,1,5.38-.79,10.73,10.73,0,0,1,4.91,1.17,13.22,13.22,0,0,1,4.05,3.16A15.21,15.21,0,0,1,197.53,78a15.57,15.57,0,0,1,1,5.65v32.86h-9.27V85a10.31,10.31,0,0,0-.66-3.71,10.16,10.16,0,0,0-1.81-3.06,8.73,8.73,0,0,0-2.65-2.09,6.9,6.9,0,0,0-3.18-.76,15.48,15.48,0,0,0-3.87.51,17.76,17.76,0,0,0-3.77,1.42,18.46,18.46,0,0,0-3.26,2.12A10.42,10.42,0,0,0,167.73,82v34.54h-9.22V85a10.11,10.11,0,0,0-.68-3.71A10.44,10.44,0,0,0,156,78.24a8.57,8.57,0,0,0-2.67-2.09,7.08,7.08,0,0,0-3.21-.76,13.11,13.11,0,0,0-3.62.53,20.62,20.62,0,0,0-3.69,1.45,19.94,19.94,0,0,0-3.34,2.12,16.45,16.45,0,0,0-2.6,2.52v34.54h-9.22Zm115.79,46.51h-9.27v-6.37c-1.09.85-2.16,1.71-3.21,2.57a25.21,25.21,0,0,1-3.41,2.37,19.61,19.61,0,0,1-4.08,1.76,17.65,17.65,0,0,1-5.19.68,13.1,13.1,0,0,1-5-.89,10.74,10.74,0,0,1-3.74-2.44,10.93,10.93,0,0,1-2.37-3.69,12.47,12.47,0,0,1-.84-4.59,11.9,11.9,0,0,1,1.19-5.4,15.11,15.11,0,0,1,3.26-4.3,23.08,23.08,0,0,1,4.79-3.39,46.44,46.44,0,0,1,5.83-2.65q3.12-1.17,6.37-2.06c2.17-.6,4.3-1.17,6.37-1.71v-2.9a19,19,0,0,0-.64-5.33,9.1,9.1,0,0,0-1.81-3.51,6.6,6.6,0,0,0-2.82-1.94,11.23,11.23,0,0,0-3.75-.58,10.08,10.08,0,0,0-3.82.61,6,6,0,0,0-2.32,1.6,5.37,5.37,0,0,0-1.14,2.24,10.53,10.53,0,0,0-.31,2.58,13.68,13.68,0,0,1-.2,2.34,6.1,6.1,0,0,1-.71,2,3.83,3.83,0,0,1-1.4,1.37,4.54,4.54,0,0,1-2.27.51,4.42,4.42,0,0,1-3.49-1.55,5.75,5.75,0,0,1-1.35-3.9,7.05,7.05,0,0,1,1.5-4.3,12.9,12.9,0,0,1,4.08-3.47,23.5,23.5,0,0,1,6-2.29,30,30,0,0,1,7.19-.84,29.1,29.1,0,0,1,7.74.89,14.16,14.16,0,0,1,5.12,2.5,9.16,9.16,0,0,1,2.82,3.89,14.29,14.29,0,0,1,.87,5.1Zm-9.27-27.1a62.51,62.51,0,0,0-6.27,2.31,41.15,41.15,0,0,0-6,3.19,19.82,19.82,0,0,0-4.53,3.94,7.16,7.16,0,0,0-1.78,4.62,8.35,8.35,0,0,0,.63,3.21,9.45,9.45,0,0,0,1.68,2.67,8.51,8.51,0,0,0,2.4,1.83,6.13,6.13,0,0,0,2.83.69,10.37,10.37,0,0,0,3-.41,14.72,14.72,0,0,0,2.72-1.09,22.3,22.3,0,0,0,2.65-1.63c.88-.63,1.78-1.28,2.7-2Zm36.47,24.91a10.1,10.1,0,0,0,3.49-.59,9,9,0,0,0,2.75-1.55,7.61,7.61,0,0,0,1.81-2.19,5.33,5.33,0,0,0,.66-2.55,6.41,6.41,0,0,0-1.07-3.72,11.53,11.53,0,0,0-2.82-2.85,24.58,24.58,0,0,0-4-2.32l-4.56-2.14q-2.33-1.1-4.56-2.37a20.29,20.29,0,0,1-4-3,13.69,13.69,0,0,1-2.83-3.87,11.8,11.8,0,0,1-1.07-5.2,11.45,11.45,0,0,1,1.2-5.2,12.54,12.54,0,0,1,3.31-4.12,15.4,15.4,0,0,1,5-2.7,19.93,19.93,0,0,1,6.37-1,27.09,27.09,0,0,1,4.33.33,14.35,14.35,0,0,1,3.94,1.25,17.08,17.08,0,0,1,3.85,2.62,31.52,31.52,0,0,1,4,4.46l-3.37,3a19.63,19.63,0,0,0-5.93-6.44,13,13,0,0,0-10.62-1.63,9.21,9.21,0,0,0-2.8,1.33A6.1,6.1,0,0,0,262,76a4.68,4.68,0,0,0-.64,2.39A5.87,5.87,0,0,0,262.48,82a12.44,12.44,0,0,0,3.08,2.83,27.61,27.61,0,0,0,4.34,2.32l5,2.14c1.7.73,3.35,1.52,5,2.37a22.83,22.83,0,0,1,4.33,2.93,13.41,13.41,0,0,1,3.08,3.84,10.66,10.66,0,0,1,1.17,5.1,13.94,13.94,0,0,1-1.09,5.52,12,12,0,0,1-3.31,4.46,16.26,16.26,0,0,1-5.56,3,25.11,25.11,0,0,1-7.82,1.09,27.22,27.22,0,0,1-4.17-.33,18.5,18.5,0,0,1-4.33-1.24,19.35,19.35,0,0,1-4.38-2.63,23.74,23.74,0,0,1-4.28-4.45l3.77-3.42a38.28,38.28,0,0,0,3.23,4.08,18.22,18.22,0,0,0,3.16,2.75,11.7,11.7,0,0,0,3.31,1.55A13.6,13.6,0,0,0,270.63,114.36Zm51.86-3.72a13.81,13.81,0,0,1-4.91,5.07,14.52,14.52,0,0,1-7.57,1.85,9.82,9.82,0,0,1-4.07-.78,7.6,7.6,0,0,1-2.86-2.22,9.43,9.43,0,0,1-1.65-3.41,16.91,16.91,0,0,1-.54-4.43V74h-8.05V71.67a13.13,13.13,0,0,0,6.4-1.4,11.78,11.78,0,0,0,4.12-3.82,20.15,20.15,0,0,0,2.52-5.61c.62-2.12,1.14-4.35,1.58-6.7h2.65V70h10.45V74H310.11v32.76a4.85,4.85,0,0,0,1.45,3.54,4.92,4.92,0,0,0,3.6,1.45,5.44,5.44,0,0,0,2.85-.77,8.45,8.45,0,0,0,2.19-1.88Zm6.06-38.92L335,69.07h2.7v47.48h-9.17Zm16.68-24c-7.36,3.26-12.34,9.1-16.63,15.6-.34,0-.38-.19-.44-.34a10.15,10.15,0,0,1,.85-10c2.23-3.45,5.57-5.39,9.24-6.85a33.28,33.28,0,0,1,15.12-2,3.47,3.47,0,0,1,.55.08.42.42,0,0,1,.27.23c.06.19-.13.25-.27.3-3.81,1.42-5.78,4.68-7.75,7.9-1.75,2.86-3.16,5.92-5.12,8.65a12.82,12.82,0,0,1-4.14,4,7,7,0,0,1-5.42.59,1.44,1.44,0,0,0-1.44.28,5.82,5.82,0,0,1-2.17,1.35A20.68,20.68,0,0,1,330.23,63a69.1,69.1,0,0,1,7.48-9.39,35.27,35.27,0,0,1,3.67-3.09c.24-.2.52-.34.64-.65s.32-.46.47-.37c.81.48,1-.3,1.36-.67S344.89,48.21,345.23,47.67Zm23.52,69.89a20.5,20.5,0,0,1-8.56-1.8,22.45,22.45,0,0,1-7-4.94,23.51,23.51,0,0,1-6.39-16.28,26.13,26.13,0,0,1,1.89-9.91,25.45,25.45,0,0,1,5.14-8.1,24.41,24.41,0,0,1,7.67-5.45,22.35,22.35,0,0,1,9.4-2,28.08,28.08,0,0,1,7.2.87,20.46,20.46,0,0,1,5.68,2.34,11.55,11.55,0,0,1,3.72,3.51,7.86,7.86,0,0,1,1.33,4.39,3.83,3.83,0,0,1-.54,2,5.55,5.55,0,0,1-1.42,1.61,7.83,7.83,0,0,1-2,1.09,6.36,6.36,0,0,1-2.22.41,5.84,5.84,0,0,1-2.24-.43,4.75,4.75,0,0,1-1.7-1.18A5.38,5.38,0,0,1,377.69,82a4.63,4.63,0,0,1-.39-1.83,13.3,13.3,0,0,0-.33-3,5.61,5.61,0,0,0-1.22-2.42,6.1,6.1,0,0,0-2.4-1.6,10.69,10.69,0,0,0-3.84-.59,12.28,12.28,0,0,0-5.66,1.28,12.7,12.7,0,0,0-4.22,3.44A15.3,15.3,0,0,0,357,82.34a20.79,20.79,0,0,0-.92,6.24A30.22,30.22,0,0,0,357.21,97a22.51,22.51,0,0,0,3.28,7,16.7,16.7,0,0,0,5.15,4.74,13,13,0,0,0,6.67,1.75,14.37,14.37,0,0,0,5.63-1,13.5,13.5,0,0,0,4.13-2.75,17.13,17.13,0,0,0,3-4,40.35,40.35,0,0,0,2.22-4.84l2.8,1.12a31.89,31.89,0,0,1-3.16,7.82,23.1,23.1,0,0,1-4.69,5.83,19.19,19.19,0,0,1-6.11,3.67A20.92,20.92,0,0,1,368.75,117.56Z"/><g class="cls-3"><ellipse class="cls-4" cx="223.68" cy="91.81" rx="265.52" ry="121.2"/></g></g><g id="Layer_3" data-name="Layer 3"><path class="cls-5" d="M74.19,125.35c1.45-.14,2.72.64,4.16.26-17.48-6.25-35.1-4.39-52.59-.36-.61-.5-.33-.91-.2-1.28,3.09-8.17,8.79-13.33,17.37-15.4,9.21-2.22,17.87-.15,26.32,3.24,11.2,4.48,20.45,11.74,28.46,20.66a5.47,5.47,0,0,1,.8,1,1,1,0,0,1,.09.81c-.21.4-.61.22-.93.08-8.64-3.69-17.1-1.37-25.51.88-7.46,2-14.69,4.85-22.31,6.3-4.39.84-8.76,1.19-13.19,0a16,16,0,0,1-10-7.63,3.37,3.37,0,0,0-2.87-1.82c-1.82-.2-3.75-.06-5.77-1.19a46.37,46.37,0,0,1,10.89-3.57,160.58,160.58,0,0,1,27.41-3.8c3.66-.23,7.37.37,11,.66"/><g class="cls-6"><path class="cls-7" d="M14.76,141.45A4.37,4.37,0,0,1,12,144.09c-2.29.77-4.52,1.72-7,2.71.74-2.68-.67-4.74.36-7,1.73-3.77,4.17-7.47,6-11.18.4-.81,1.16-1.35.06-1.82C-1.7,121.23-1.27,109.28.37,98.19c1.37-9.27,4.61-18,7.8-26.77C12.87,58.53,18.56,46,22.45,32.82c2-6.63,3.58-13.32,3.49-20.3C25.88,7.34,25,2.38,21.6-1.79c-.13-.16-.12-.44-.28-1.09C27.1.57,31.48,5,35.68,9.45c13,13.9,21.77,30,24.82,48.91,2.54,15.7.72,30.78-7.45,44.73A55.69,55.69,0,0,1,32.5,123.43a74,74,0,0,1-6.68,3.38"/></g><g class="cls-6"><path class="cls-8" d="M14.76,141.45A4.37,4.37,0,0,1,12,144.09c-2.29.77-4.52,1.72-7,2.71.74-2.68-.67-4.74.36-7,1.73-3.77,4.17-7.47,6-11.18.4-.81,1.16-1.35.06-1.82C-1.7,121.23-1.27,109.28.37,98.19c1.37-9.27,4.61-18,7.8-26.77C12.87,58.53,18.56,46,22.45,32.82c2-6.63,3.58-13.32,3.49-20.3C25.88,7.34,25,2.38,21.6-1.79c-.13-.16-.12-.44-.28-1.09C27.1.57,31.48,5,35.68,9.45c13,13.9,21.77,30,24.82,48.91,2.54,15.7.72,30.78-7.45,44.73A55.69,55.69,0,0,1,32.5,123.43a74,74,0,0,1-6.68,3.38"/></g></g></svg>