<svg xmlns="http://www.w3.org/2000/svg" viewBox="0 0 2339.56 588"><defs><style>.cls-1,.cls-2{fill:none;stroke:#fecf2f;stroke-width:20px;}.cls-1{stroke-linejoin:round;}.cls-2{stroke-miterlimit:10;}.cls-3{fill:#fff;}</style></defs><title>LumasticV17</title><g id="ENDLESS_Copy" data-name="ENDLESS Copy"><path class="cls-1" d="M147.41,150.05a142.2,142.2,0,0,0,27.7,102.19A141.64,141.64,0,0,0,249,177.34,141.78,141.78,0,0,0,147.41,150.05Z"/><path class="cls-1" d="M151.4,203.84a140.8,140.8,0,0,1-4-53.79,138.91,138.91,0,0,0-20.49,4A141.56,141.56,0,0,0,33.4,235.88,141.62,141.62,0,0,0,136.19,263a138.5,138.5,0,0,0,19.25-3.81,141.58,141.58,0,0,0,19.67-6.94A141.66,141.66,0,0,1,151.4,203.84Z"/><path class="cls-1" d="M255.14,85.24A141.05,141.05,0,0,0,231.4,36.81a141.61,141.61,0,0,0-84,113.24A141.78,141.78,0,0,1,249,177.34a141,141,0,0,0,6.12-92.1Z"/><circle class="cls-2" cx="291.28" cy="294" r="94.54"/><circle class="cls-2" cx="291.28" cy="294" r="275.86"/><path class="cls-1" d="M334.18,177.34a141.62,141.62,0,0,0,73.9,74.9,142.14,142.14,0,0,0,27.71-102.19A141.77,141.77,0,0,0,334.18,177.34Z"/><path class="cls-1" d="M408.08,252.24a142.51,142.51,0,0,0,19.67,6.94A138.63,138.63,0,0,0,447,263,141.64,141.64,0,0,0,549.8,235.88,141.56,141.56,0,0,0,456.28,154a139.17,139.17,0,0,0-20.49-4,142.14,142.14,0,0,1-27.71,102.19Z"/><path class="cls-1" d="M324,139.05a142.34,142.34,0,0,0,10.14,38.29,141.77,141.77,0,0,1,101.61-27.29,143.12,143.12,0,0,0-10.58-39.47A141.55,141.55,0,0,0,351.8,36.81,142.38,142.38,0,0,0,324,139.05Z"/><path class="cls-1" d="M249,410.94A141.71,141.71,0,0,0,175.11,336a142.2,142.2,0,0,0-27.7,102.19A141.78,141.78,0,0,0,249,410.94Z"/><path class="cls-1" d="M175.11,336a141.58,141.58,0,0,0-19.67-6.94,137,137,0,0,0-19.25-3.8A141.62,141.62,0,0,0,33.4,352.4a141.56,141.56,0,0,0,93.52,81.86,137.63,137.63,0,0,0,20.49,4A142.2,142.2,0,0,1,175.11,336Z"/><path class="cls-1" d="M259.16,449.23A142.71,142.71,0,0,0,249,410.94a141.78,141.78,0,0,1-101.61,27.29,141.61,141.61,0,0,0,84,113.24,142.38,142.38,0,0,0,27.76-102.24Z"/><path class="cls-1" d="M435.79,438.23A142.14,142.14,0,0,0,408.08,336a141.69,141.69,0,0,0-73.9,74.9A141.77,141.77,0,0,0,435.79,438.23Z"/><path class="cls-1" d="M431.8,384.44a140.8,140.8,0,0,1,4,53.79,137.87,137.87,0,0,0,20.49-4A141.56,141.56,0,0,0,549.8,352.4,141.63,141.63,0,0,0,447,325.3a137.15,137.15,0,0,0-19.26,3.8A142.51,142.51,0,0,0,408.08,336,141.5,141.5,0,0,1,431.8,384.44Z"/><path class="cls-1" d="M328.06,503a140.78,140.78,0,0,0,23.74,48.43,141.61,141.61,0,0,0,84-113.24,141.77,141.77,0,0,1-101.61-27.29,141,141,0,0,0-6.12,92.1Z"/></g><g id="Endless_V2" data-name="Endless V2"><path class="cls-3" d="M770.77,161.66H815V407.84h132.2v16.89H770.77Z"/><path class="cls-3" d="M1014.73,221.87V366.3a29.1,29.1,0,0,0,3.56,14.1,39.28,39.28,0,0,0,9.55,11.56,45.94,45.94,0,0,0,14.11,7.89,51.76,51.76,0,0,0,17.44,2.88,37.25,37.25,0,0,0,12.89-2.55,60.23,60.23,0,0,0,13.33-7,79.69,79.69,0,0,0,12.22-10.44,63.23,63.23,0,0,0,9.56-12.67V221.87h40.21V424.73h-40.21v-38a85.47,85.47,0,0,1-13.34,16.44,98.65,98.65,0,0,1-17.44,13.55,94.74,94.74,0,0,1-19.33,9.11,58.87,58.87,0,0,1-18.77,3.34,62.85,62.85,0,0,1-25-5,65.17,65.17,0,0,1-20.33-13.56,63.31,63.31,0,0,1-13.66-20,59.92,59.92,0,0,1-5-24.32V221.87Z"/><path class="cls-3" d="M1194.7,221.87h40.22v38a152.09,152.09,0,0,1,17.44-16.11,150.12,150.12,0,0,1,20-13.44,118.6,118.6,0,0,1,20.77-9.22,62.51,62.51,0,0,1,19.56-3.45,55.92,55.92,0,0,1,18.22,3.22,63.23,63.23,0,0,1,30.55,22.56,42.21,42.21,0,0,1,7.44,17.1,67.12,67.12,0,0,1,13.89-16.66,101.93,101.93,0,0,1,19.55-13.55A116,116,0,0,1,1425,221.1a83.8,83.8,0,0,1,23.44-3.45,47,47,0,0,1,21.44,5.11,58,58,0,0,1,17.67,13.78,67.35,67.35,0,0,1,12,20.22,68.13,68.13,0,0,1,4.44,24.66V424.73h-40.44V287.2a44.9,44.9,0,0,0-2.89-16.22,44.26,44.26,0,0,0-7.88-13.33,38,38,0,0,0-11.56-9.11,30.14,30.14,0,0,0-13.89-3.34,68.36,68.36,0,0,0-16.88,2.22,78.53,78.53,0,0,0-16.44,6.23,81.5,81.5,0,0,0-14.22,9.22,46.12,46.12,0,0,0-10.22,11.22V424.73h-40.22V287.2a43.51,43.51,0,0,0-3-16.22,46.28,46.28,0,0,0-8-13.33,37.46,37.46,0,0,0-11.66-9.11,30.83,30.83,0,0,0-14-3.34,57.59,57.59,0,0,0-15.78,2.34,91.06,91.06,0,0,0-30.66,15.55,69.89,69.89,0,0,0-11.33,11V424.73H1194.7Z"/><path class="cls-3" d="M1699.74,424.73H1659.3V397q-7.11,5.55-14,11.22a112.11,112.11,0,0,1-14.89,10.33,84,84,0,0,1-17.77,7.67,77.75,77.75,0,0,1-22.66,3,57.69,57.69,0,0,1-21.67-3.89,46.14,46.14,0,0,1-26.66-26.78,54.23,54.23,0,0,1-3.66-20,51.88,51.88,0,0,1,5.22-23.56,65,65,0,0,1,14.22-18.77,102.38,102.38,0,0,1,20.88-14.78,206.66,206.66,0,0,1,25.44-11.55q13.56-5.12,27.78-9t27.77-7.44V280.75q0-13.77-2.78-23.22a40.48,40.48,0,0,0-7.89-15.33,28.89,28.89,0,0,0-12.33-8.44,48.84,48.84,0,0,0-16.33-2.55q-10.21,0-16.66,2.66a25.86,25.86,0,0,0-10.11,7,23.63,23.63,0,0,0-5,9.78,46.94,46.94,0,0,0-1.33,11.22,57.33,57.33,0,0,1-.89,10.22,26.27,26.27,0,0,1-3.11,8.66,16.44,16.44,0,0,1-6.11,6,19.78,19.78,0,0,1-9.89,2.22,19.21,19.21,0,0,1-15.22-6.77q-5.89-6.78-5.89-17a30.78,30.78,0,0,1,6.56-18.77,56.1,56.1,0,0,1,17.77-15.11,102.55,102.55,0,0,1,26.11-10,130.23,130.23,0,0,1,31.33-3.67q20,0,33.77,3.89t22.33,10.89a39.89,39.89,0,0,1,12.33,17,62.45,62.45,0,0,1,3.78,22.22Zm-40.44-118.2A263.24,263.24,0,0,0,1632,316.64a175.56,175.56,0,0,0-26.22,13.88A85.81,85.81,0,0,0,1586,347.74q-7.79,9.45-7.78,20.11a35.87,35.87,0,0,0,2.78,14,39.85,39.85,0,0,0,7.33,11.66,36.23,36.23,0,0,0,10.44,8,26.84,26.84,0,0,0,12.33,3,46.14,46.14,0,0,0,13-1.78A64.77,64.77,0,0,0,1636,398a97.38,97.38,0,0,0,11.55-7.11q5.77-4.11,11.78-8.56Z"/><path class="cls-3" d="M1818.39,415.18a44,44,0,0,0,15.22-2.56,39.07,39.07,0,0,0,12-6.78,32.81,32.81,0,0,0,7.89-9.55,22.94,22.94,0,0,0,2.89-11.11,28.32,28.32,0,0,0-4.66-16.22,50.51,50.51,0,0,0-12.34-12.44,106.1,106.1,0,0,0-17.44-10.11q-9.78-4.56-19.88-9.33t-19.89-10.33a87.65,87.65,0,0,1-17.44-12.89A59.05,59.05,0,0,1,1752.4,297q-4.67-9.54-4.67-22.66a50,50,0,0,1,5.22-22.66,54.79,54.79,0,0,1,14.44-18,68.46,68.46,0,0,1,21.89-11.78,87.48,87.48,0,0,1,27.77-4.22,117,117,0,0,1,18.89,1.45,62.83,62.83,0,0,1,17.22,5.44A74.55,74.55,0,0,1,1869.93,236a134.39,134.39,0,0,1,17.56,19.44l-14.67,13.11q-11.55-18.88-25.88-28.1a56.71,56.71,0,0,0-46.33-7.11,40.57,40.57,0,0,0-12.22,5.77,26.93,26.93,0,0,0-7.89,8.56,20.81,20.81,0,0,0-2.77,10.44,25.65,25.65,0,0,0,5.11,15.89,54,54,0,0,0,13.44,12.33,119.5,119.5,0,0,0,18.88,10.11q10.56,4.56,21.67,9.33t21.66,10.33a99.29,99.29,0,0,1,18.89,12.78,58.69,58.69,0,0,1,13.44,16.77q5.12,9.56,5.11,22.22a60.82,60.82,0,0,1-4.78,24.11,52,52,0,0,1-14.44,19.44q-9.66,8.22-24.22,13t-34.1,4.78a119.38,119.38,0,0,1-18.22-1.45,81.16,81.16,0,0,1-18.89-5.44,84.09,84.09,0,0,1-19.11-11.45,104.37,104.37,0,0,1-18.66-19.44L1760,376.52a171.6,171.6,0,0,0,14.11,17.77,77.37,77.37,0,0,0,13.78,12,51.07,51.07,0,0,0,14.44,6.78A59.1,59.1,0,0,0,1818.39,415.18Z"/><path class="cls-3" d="M2044.57,399a60.16,60.16,0,0,1-21.44,22.1q-13.44,8.12-33,8.12a42.47,42.47,0,0,1-17.78-3.45,32.86,32.86,0,0,1-12.44-9.66,41,41,0,0,1-7.22-14.89,74.16,74.16,0,0,1-2.33-19.33V239h-35.11V229q16.88,0,27.88-6.11a50.88,50.88,0,0,0,18-16.66,87.83,87.83,0,0,0,11-24.44q4-13.89,6.89-29.22h11.55v69.32h45.55V239h-45.55V381.85a21,21,0,0,0,6.33,15.44,21.31,21.31,0,0,0,15.67,6.33,23.72,23.72,0,0,0,12.44-3.33,36.36,36.36,0,0,0,9.55-8.22Z"/><path class="cls-3" d="M2090.57,118.11a26.38,26.38,0,0,1,9,1.56A22,22,0,0,1,2112,130.44a17,17,0,0,1,1.89,7.89A16.54,16.54,0,0,1,2112,146a22.31,22.31,0,0,1-5,6.44,24.11,24.11,0,0,1-7.44,4.44,24.9,24.9,0,0,1-9,1.67,24.67,24.67,0,0,1-16.22-6.11,22,22,0,0,1-5-6.44,16.54,16.54,0,0,1-1.89-7.67,17,17,0,0,1,1.89-7.89,22,22,0,0,1,5-6.44,22.41,22.41,0,0,1,7.33-4.33A25.43,25.43,0,0,1,2090.57,118.11ZM2071,229.21l28.22-11.56H2111V424.73h-40Z"/><path class="cls-3" d="M2246.32,429.18a89.21,89.21,0,0,1-37.33-7.89,97.06,97.06,0,0,1-30.33-21.55,102.31,102.31,0,0,1-27.88-71,114.19,114.19,0,0,1,8.22-43.22,111.56,111.56,0,0,1,22.44-35.33,106.62,106.62,0,0,1,33.44-23.77,97.5,97.5,0,0,1,41-8.78,123.05,123.05,0,0,1,31.44,3.78,91.56,91.56,0,0,1,24.78,10.22A50.76,50.76,0,0,1,2328.31,247a34.45,34.45,0,0,1,5.77,19.11,16.82,16.82,0,0,1-2.33,8.66,24.13,24.13,0,0,1-6.22,7,32.61,32.61,0,0,1-8.67,4.78,27.36,27.36,0,0,1-9.66,1.78,24.72,24.72,0,0,1-9.78-1.89,21.49,21.49,0,0,1-7.44-5.11,24.25,24.25,0,0,1-4.67-7.22,20.67,20.67,0,0,1-1.66-8,57,57,0,0,0-1.45-13.22,24.27,24.27,0,0,0-5.33-10.56,26.23,26.23,0,0,0-10.44-7q-6.55-2.56-16.78-2.56a53.41,53.41,0,0,0-24.66,5.56,55.74,55.74,0,0,0-18.44,15A67.51,67.51,0,0,0,2195,275.53a90.82,90.82,0,0,0-4,27.22,132.92,132.92,0,0,0,5,36.77A97.89,97.89,0,0,0,2210.33,370a72.38,72.38,0,0,0,22.44,20.66,56.5,56.5,0,0,0,29.1,7.67q14.22,0,24.55-4.44a57.9,57.9,0,0,0,18-12,74.4,74.4,0,0,0,13.11-17.55,172.22,172.22,0,0,0,9.67-21.11l12.22,4.89a140.31,140.31,0,0,1-13.78,34.1,101.51,101.51,0,0,1-20.44,25.44,84,84,0,0,1-26.66,16A91.56,91.56,0,0,1,2246.32,429.18Z"/><path class="cls-3" d="M770.77,161.66H815V407.84h132.2v16.89H770.77Z"/><path class="cls-3" d="M1014.73,221.87V366.3a29.1,29.1,0,0,0,3.56,14.1,39.28,39.28,0,0,0,9.55,11.56,45.94,45.94,0,0,0,14.11,7.89,51.76,51.76,0,0,0,17.44,2.88,37.25,37.25,0,0,0,12.89-2.55,60.23,60.23,0,0,0,13.33-7,79.69,79.69,0,0,0,12.22-10.44,63.23,63.23,0,0,0,9.56-12.67V221.87h40.21V424.73h-40.21v-38a85.47,85.47,0,0,1-13.34,16.44,98.65,98.65,0,0,1-17.44,13.55,94.74,94.74,0,0,1-19.33,9.11,58.87,58.87,0,0,1-18.77,3.34,62.85,62.85,0,0,1-25-5,65.17,65.17,0,0,1-20.33-13.56,63.31,63.31,0,0,1-13.66-20,59.92,59.92,0,0,1-5-24.32V221.87Z"/><path class="cls-3" d="M1194.7,221.87h40.22v38a152.09,152.09,0,0,1,17.44-16.11,150.12,150.12,0,0,1,20-13.44,118.6,118.6,0,0,1,20.77-9.22,62.51,62.51,0,0,1,19.56-3.45,55.92,55.92,0,0,1,18.22,3.22,63.23,63.23,0,0,1,30.55,22.56,42.21,42.21,0,0,1,7.44,17.1,67.12,67.12,0,0,1,13.89-16.66,101.93,101.93,0,0,1,19.55-13.55A116,116,0,0,1,1425,221.1a83.8,83.8,0,0,1,23.44-3.45,47,47,0,0,1,21.44,5.11,58,58,0,0,1,17.67,13.78,67.35,67.35,0,0,1,12,20.22,68.13,68.13,0,0,1,4.44,24.66V424.73h-40.44V287.2a44.9,44.9,0,0,0-2.89-16.22,44.26,44.26,0,0,0-7.88-13.33,38,38,0,0,0-11.56-9.11,30.14,30.14,0,0,0-13.89-3.34,68.36,68.36,0,0,0-16.88,2.22,78.53,78.53,0,0,0-16.44,6.23,81.5,81.5,0,0,0-14.22,9.22,46.12,46.12,0,0,0-10.22,11.22V424.73h-40.22V287.2a43.51,43.51,0,0,0-3-16.22,46.28,46.28,0,0,0-8-13.33,37.46,37.46,0,0,0-11.66-9.11,30.83,30.83,0,0,0-14-3.34,57.59,57.59,0,0,0-15.78,2.34,91.06,91.06,0,0,0-30.66,15.55,69.89,69.89,0,0,0-11.33,11V424.73H1194.7Z"/><path class="cls-3" d="M1699.74,424.73H1659.3V397q-7.11,5.55-14,11.22a112.11,112.11,0,0,1-14.89,10.33,84,84,0,0,1-17.77,7.67,77.75,77.75,0,0,1-22.66,3,57.69,57.69,0,0,1-21.67-3.89,46.14,46.14,0,0,1-26.66-26.78,54.23,54.23,0,0,1-3.66-20,51.88,51.88,0,0,1,5.22-23.56,65,65,0,0,1,14.22-18.77,102.38,102.38,0,0,1,20.88-14.78,206.66,206.66,0,0,1,25.44-11.55q13.56-5.12,27.78-9t27.77-7.44V280.75q0-13.77-2.78-23.22a40.48,40.48,0,0,0-7.89-15.33,28.89,28.89,0,0,0-12.33-8.44,48.84,48.84,0,0,0-16.33-2.55q-10.21,0-16.66,2.66a25.86,25.86,0,0,0-10.11,7,23.63,23.63,0,0,0-5,9.78,46.94,46.94,0,0,0-1.33,11.22,57.33,57.33,0,0,1-.89,10.22,26.27,26.27,0,0,1-3.11,8.66,16.44,16.44,0,0,1-6.11,6,19.78,19.78,0,0,1-9.89,2.22,19.21,19.21,0,0,1-15.22-6.77q-5.89-6.78-5.89-17a30.78,30.78,0,0,1,6.56-18.77,56.1,56.1,0,0,1,17.77-15.11,102.55,102.55,0,0,1,26.11-10,130.23,130.23,0,0,1,31.33-3.67q20,0,33.77,3.89t22.33,10.89a39.89,39.89,0,0,1,12.33,17,62.45,62.45,0,0,1,3.78,22.22Zm-40.44-118.2A263.24,263.24,0,0,0,1632,316.64a175.56,175.56,0,0,0-26.22,13.88A85.81,85.81,0,0,0,1586,347.74q-7.79,9.45-7.78,20.11a35.87,35.87,0,0,0,2.78,14,39.85,39.85,0,0,0,7.33,11.66,36.23,36.23,0,0,0,10.44,8,26.84,26.84,0,0,0,12.33,3,46.14,46.14,0,0,0,13-1.78A64.77,64.77,0,0,0,1636,398a97.38,97.38,0,0,0,11.55-7.11q5.77-4.11,11.78-8.56Z"/><path class="cls-3" d="M1818.39,415.18a44,44,0,0,0,15.22-2.56,39.07,39.07,0,0,0,12-6.78,32.81,32.81,0,0,0,7.89-9.55,22.94,22.94,0,0,0,2.89-11.11,28.32,28.32,0,0,0-4.66-16.22,50.51,50.51,0,0,0-12.34-12.44,106.1,106.1,0,0,0-17.44-10.11q-9.78-4.56-19.88-9.33t-19.89-10.33a87.65,87.65,0,0,1-17.44-12.89A59.05,59.05,0,0,1,1752.4,297q-4.67-9.54-4.67-22.66a50,50,0,0,1,5.22-22.66,54.79,54.79,0,0,1,14.44-18,68.46,68.46,0,0,1,21.89-11.78,87.48,87.48,0,0,1,27.77-4.22,117,117,0,0,1,18.89,1.45,62.83,62.83,0,0,1,17.22,5.44A74.55,74.55,0,0,1,1869.93,236a134.39,134.39,0,0,1,17.56,19.44l-14.67,13.11q-11.55-18.88-25.88-28.1a56.71,56.71,0,0,0-46.33-7.11,40.57,40.57,0,0,0-12.22,5.77,26.93,26.93,0,0,0-7.89,8.56,20.81,20.81,0,0,0-2.77,10.44,25.65,25.65,0,0,0,5.11,15.89,54,54,0,0,0,13.44,12.33,119.5,119.5,0,0,0,18.88,10.11q10.56,4.56,21.67,9.33t21.66,10.33a99.29,99.29,0,0,1,18.89,12.78,58.69,58.69,0,0,1,13.44,16.77q5.12,9.56,5.11,22.22a60.82,60.82,0,0,1-4.78,24.11,52,52,0,0,1-14.44,19.44q-9.66,8.22-24.22,13t-34.1,4.78a119.38,119.38,0,0,1-18.22-1.45,81.16,81.16,0,0,1-18.89-5.44,84.09,84.09,0,0,1-19.11-11.45,104.37,104.37,0,0,1-18.66-19.44L1760,376.52a171.6,171.6,0,0,0,14.11,17.77,77.37,77.37,0,0,0,13.78,12,51.07,51.07,0,0,0,14.44,6.78A59.1,59.1,0,0,0,1818.39,415.18Z"/><path class="cls-3" d="M2044.57,399a60.16,60.16,0,0,1-21.44,22.1q-13.44,8.12-33,8.12a42.47,42.47,0,0,1-17.78-3.45,32.86,32.86,0,0,1-12.44-9.66,41,41,0,0,1-7.22-14.89,74.16,74.16,0,0,1-2.33-19.33V239h-35.11V229q16.88,0,27.88-6.11a50.88,50.88,0,0,0,18-16.66,87.83,87.83,0,0,0,11-24.44q4-13.89,6.89-29.22h11.55v69.32h45.55V239h-45.55V381.85a21,21,0,0,0,6.33,15.44,21.31,21.31,0,0,0,15.67,6.33,23.72,23.72,0,0,0,12.44-3.33,36.36,36.36,0,0,0,9.55-8.22Z"/><path class="cls-3" d="M2090.57,118.11a26.38,26.38,0,0,1,9,1.56A22,22,0,0,1,2112,130.44a17,17,0,0,1,1.89,7.89A16.54,16.54,0,0,1,2112,146a22.31,22.31,0,0,1-5,6.44,24.11,24.11,0,0,1-7.44,4.44,24.9,24.9,0,0,1-9,1.67,24.67,24.67,0,0,1-16.22-6.11,22,22,0,0,1-5-6.44,16.54,16.54,0,0,1-1.89-7.67,17,17,0,0,1,1.89-7.89,22,22,0,0,1,5-6.44,22.41,22.41,0,0,1,7.33-4.33A25.43,25.43,0,0,1,2090.57,118.11ZM2071,229.21l28.22-11.56H2111V424.73h-40Z"/><path class="cls-3" d="M2246.32,429.18a89.21,89.21,0,0,1-37.33-7.89,97.06,97.06,0,0,1-30.33-21.55,102.31,102.31,0,0,1-27.88-71,114.19,114.19,0,0,1,8.22-43.22,111.56,111.56,0,0,1,22.44-35.33,106.62,106.62,0,0,1,33.44-23.77,97.5,97.5,0,0,1,41-8.78,123.05,123.05,0,0,1,31.44,3.78,91.56,91.56,0,0,1,24.78,10.22A50.76,50.76,0,0,1,2328.31,247a34.45,34.45,0,0,1,5.77,19.11,16.82,16.82,0,0,1-2.33,8.66,24.13,24.13,0,0,1-6.22,7,32.61,32.61,0,0,1-8.67,4.78,27.36,27.36,0,0,1-9.66,1.78,24.72,24.72,0,0,1-9.78-1.89,21.49,21.49,0,0,1-7.44-5.11,24.25,24.25,0,0,1-4.67-7.22,20.67,20.67,0,0,1-1.66-8,57,57,0,0,0-1.45-13.22,24.27,24.27,0,0,0-5.33-10.56,26.23,26.23,0,0,0-10.44-7q-6.55-2.56-16.78-2.56a53.41,53.41,0,0,0-24.66,5.56,55.74,55.74,0,0,0-18.44,15A67.51,67.51,0,0,0,2195,275.53a90.82,90.82,0,0,0-4,27.22,132.92,132.92,0,0,0,5,36.77A97.89,97.89,0,0,0,2210.33,370a72.38,72.38,0,0,0,22.44,20.66,56.5,56.5,0,0,0,29.1,7.67q14.22,0,24.55-4.44a57.9,57.9,0,0,0,18-12,74.4,74.4,0,0,0,13.11-17.55,172.22,172.22,0,0,0,9.67-21.11l12.22,4.89a140.31,140.31,0,0,1-13.78,34.1,101.51,101.51,0,0,1-20.44,25.44,84,84,0,0,1-26.66,16A91.56,91.56,0,0,1,2246.32,429.18Z"/></g></svg>