<svg xmlns="http://www.w3.org/2000/svg" viewBox="0 0 1938.46 500"><defs><style>.cls-1{font-size:340.26px;fill:#f4faff;font-family:KhmerMN, Khmer MN;}.cls-2{fill:none;stroke:#f6ae2d;stroke-miterlimit:10;stroke-width:16.62px;}</style></defs><title>LumasticV14</title><g id="Endless_V2" data-name="Endless V2"><text class="cls-1" transform="translate(664.88 342.62)">Lumastic</text></g><g id="Layer_11" data-name="Layer 11"><path class="cls-2" d="M250,13.57C119.42,13.57,13.57,119.42,13.57,250S119.42,486.43,250,486.43,486.43,380.58,486.43,250,380.58,13.57,250,13.57Zm-46.91,289a61.16,61.16,0,0,1-7.67-8,69.33,69.33,0,0,1-14.67-31.24,66,66,0,0,1-1.3-13.38,69.69,69.69,0,0,1,16.86-45.68,67.75,67.75,0,0,1,6.72-6.95,70.42,70.42,0,0,1,47-17.86,68.73,68.73,0,0,1,13.2,1.24,70.23,70.23,0,0,1,35.36,18.15c1.83,1.77,3.6,3.6,5.25,5.54A70,70,0,0,1,320.52,250a66,66,0,0,1-1.3,13.38,70,70,0,0,1-14.55,31.18,57.27,57.27,0,0,1-6.08,6.54,69.85,69.85,0,0,1-35.36,18.21,68.73,68.73,0,0,1-13.2,1.24,70,70,0,0,1-46.91-17.92Zm92.94-159.9c-.88.65-1.77,1.36-2.65,2.13a114.18,114.18,0,0,0-20.51,20.86,115.68,115.68,0,0,0-9.67,15,70.23,70.23,0,0,1,35.36,18.15c1.83,1.77,3.6,3.6,5.25,5.54a70.94,70.94,0,0,1,15.44,32.24,117.82,117.82,0,0,0,33.89-27.46c1.3-1.54,2.59-3.13,3.83-4.78A116.79,116.79,0,0,1,296.06,142.7Zm75-55a116.52,116.52,0,0,0-60.53-60.77,116.73,116.73,0,0,0-23.16,80.86c.06,1.12.17,2.24.29,3.36a120.78,120.78,0,0,0,8.37,31.59,116.53,116.53,0,0,1,83.75-22.51A117.77,117.77,0,0,0,371.09,87.66Zm40.84,41.07a116.15,116.15,0,0,0-15.26-5.24,114.08,114.08,0,0,0-16.86-3.3,116.53,116.53,0,0,0-83.75,22.51A116.79,116.79,0,0,0,357,204.41a111,111,0,0,0,16.15,5.72A118.76,118.76,0,0,0,389,213.25a116.91,116.91,0,0,0,84.75-22.34A116.71,116.71,0,0,0,411.93,128.73Zm-32.12-8.54a116.53,116.53,0,0,0-83.75,22.51A116.79,116.79,0,0,0,357,204.41a117.88,117.88,0,0,0,19.51-39.9A116,116,0,0,0,379.81,120.19Zm-26,171.39A117.71,117.71,0,0,0,332.9,271.9a104.28,104.28,0,0,0-13.68-8.55,70,70,0,0,1-14.55,31.18,57.27,57.27,0,0,1-6.08,6.54,69.85,69.85,0,0,1-35.36,18.21,115.54,115.54,0,0,0,30,35.78c.94.76,1.89,1.53,2.83,2.24A116.58,116.58,0,0,1,357,295.59C355.94,294.23,354.88,292.88,353.82,291.58Zm22.69,43.91A117.88,117.88,0,0,0,357,295.59a116.81,116.81,0,0,0-66.95,80.1,97.2,97.2,0,0,0-2.12,11.66,12.1,12.1,0,0,0-.24,1.54,117.15,117.15,0,0,0,22.87,84.22,116.52,116.52,0,0,0,60.53-60.77,118.34,118.34,0,0,0,8.72-32.53A115.88,115.88,0,0,0,376.51,335.49ZM398.2,286c-3.07.12-6.13.36-9.19.77a115.63,115.63,0,0,0-13.8,2.59c-.64.18-1.35.35-2.06.53A111,111,0,0,0,357,295.59a117.88,117.88,0,0,1,19.51,39.9,115.88,115.88,0,0,1,3.3,44.32,120.75,120.75,0,0,0,32.12-8.55,116.64,116.64,0,0,0,61.83-62.18A116.72,116.72,0,0,0,398.2,286Zm-21.69,49.51A117.88,117.88,0,0,0,357,295.59a116.58,116.58,0,0,0-60.94,61.71,116.53,116.53,0,0,0,83.75,22.51A115.88,115.88,0,0,0,376.51,335.49ZM227.16,165.69a115.74,115.74,0,0,0-19.57-20.16c-1.17-1-2.35-1.88-3.59-2.83a116.68,116.68,0,0,0-83.75-22.51,117.48,117.48,0,0,0,22.81,84.22c1.18,1.59,2.47,3.13,3.77,4.66a114.74,114.74,0,0,0,20.27,19,116.73,116.73,0,0,0,13.62,8.6,70.16,70.16,0,0,1,15.62-32.36,67.75,67.75,0,0,1,6.72-6.95,70.21,70.21,0,0,1,33.71-16.62A109.33,109.33,0,0,0,227.16,165.69ZM209,66.79a115.3,115.3,0,0,0-19.57-39.9,116.68,116.68,0,0,0-69.19,93.3A116.68,116.68,0,0,1,204,142.7a118.06,118.06,0,0,0,8.31-31.59A114.71,114.71,0,0,0,209,66.79Zm-85.46,97.72a116,116,0,0,1-3.3-44.32,116.38,116.38,0,0,0-16.92,3.3,118.4,118.4,0,0,0-15.2,5.24A116.71,116.71,0,0,0,26.3,190.91,116.76,116.76,0,0,0,111,213.25a117.76,117.76,0,0,0,15.92-3.12,111,111,0,0,0,16.15-5.72A116.61,116.61,0,0,1,123.55,164.51Zm-3.3-44.32a117.48,117.48,0,0,0,22.81,84.22A117,117,0,0,0,204,142.7,116.68,116.68,0,0,0,120.25,120.19ZM203.12,302.6a61.16,61.16,0,0,1-7.67-8,69.33,69.33,0,0,1-14.67-31.24,104.28,104.28,0,0,0-13.68,8.55,120.15,120.15,0,0,0-20.92,19.74c-1.06,1.3-2.12,2.59-3.12,3.95A116.79,116.79,0,0,1,204,357.3c1.3-.95,2.53-1.95,3.77-3a113.32,113.32,0,0,0,19.39-20,109.33,109.33,0,0,0,9.61-15A69.57,69.57,0,0,1,203.12,302.6Zm9.19,86.29A118.06,118.06,0,0,0,204,357.3a116.68,116.68,0,0,1-83.75,22.51A118.34,118.34,0,0,0,129,412.34a116.62,116.62,0,0,0,60.47,60.77,117.15,117.15,0,0,0,22.87-84.22Zm-69.25-93.3a111,111,0,0,0-16.15-5.72c-.53-.12-1.12-.29-1.65-.41A110.24,110.24,0,0,0,111,286.75c-3.12-.41-6.18-.65-9.31-.83A116.51,116.51,0,0,0,26.3,309.08,116.8,116.8,0,0,0,204,357.3,116.79,116.79,0,0,0,143.06,295.59Zm0,0a117.48,117.48,0,0,0-22.81,84.22A116.68,116.68,0,0,0,204,357.3,116.79,116.79,0,0,0,143.06,295.59Z"/></g></svg>