<svg xmlns="http://www.w3.org/2000/svg" xmlns:xlink="http://www.w3.org/1999/xlink" viewBox="0 0 404.09 188.5"><defs><style>.cls-1{fill:none;}.cls-2{clip-path:url(#clip-path);}.cls-3{fill:url(#radial-gradient);}.cls-4{fill:url(#radial-gradient-2);}.cls-5{clip-path:url(#clip-path-2);}.cls-6{fill:url(#radial-gradient-3);}.cls-7{fill:url(#radial-gradient-4);}</style><clipPath id="clip-path"><path class="cls-1" d="M98.52,96.82v33.11a6.7,6.7,0,0,0,.81,3.23,8.92,8.92,0,0,0,2.19,2.65,10.62,10.62,0,0,0,3.24,1.81,11.8,11.8,0,0,0,4,.66,8.52,8.52,0,0,0,3-.58,14.05,14.05,0,0,0,3.06-1.61,19.4,19.4,0,0,0,2.8-2.39,14.8,14.8,0,0,0,2.19-2.91v-34H129v46.5h-9.22v-8.71a19.77,19.77,0,0,1-3.06,3.77,22.25,22.25,0,0,1-4,3.11,22,22,0,0,1-4.43,2.09,13.46,13.46,0,0,1-4.3.76,14.52,14.52,0,0,1-5.74-1.14,15.1,15.1,0,0,1-4.66-3.11,14.85,14.85,0,0,1-3.13-4.58,13.86,13.86,0,0,1-1.14-5.58V96.82Zm41.26,0H149v8.71a35.68,35.68,0,0,1,4-3.7,33.67,33.67,0,0,1,4.58-3.08,27.18,27.18,0,0,1,4.76-2.11,14.28,14.28,0,0,1,4.49-.79,12.53,12.53,0,0,1,4.17.74,14.45,14.45,0,0,1,3.93,2.06,14.65,14.65,0,0,1,3.08,3.11,9.68,9.68,0,0,1,1.7,3.92,15.41,15.41,0,0,1,3.19-3.82,23.06,23.06,0,0,1,4.48-3.11,26.48,26.48,0,0,1,5.2-2.11,19,19,0,0,1,5.37-.79A10.8,10.8,0,0,1,202.87,97a13.3,13.3,0,0,1,4,3.16,15.65,15.65,0,0,1,3.77,10.29v32.85h-9.28V111.79a10.4,10.4,0,0,0-.66-3.72,10,10,0,0,0-1.81-3,8.54,8.54,0,0,0-2.64-2.09,7,7,0,0,0-3.19-.77,16,16,0,0,0-3.87.51,18.21,18.21,0,0,0-3.77,1.43,19,19,0,0,0-3.26,2.11,10.38,10.38,0,0,0-2.34,2.58v34.53h-9.22V111.79a10,10,0,0,0-.69-3.72,10.72,10.72,0,0,0-1.83-3,8.58,8.58,0,0,0-2.68-2.09,7.09,7.09,0,0,0-3.21-.77,13.19,13.19,0,0,0-3.62.54,21.23,21.23,0,0,0-3.69,1.45,21,21,0,0,0-3.34,2.11,16,16,0,0,0-2.59,2.53v34.53h-9.22Zm115.78,46.5h-9.27V137c-1.08.85-2.15,1.7-3.21,2.57a26.14,26.14,0,0,1-3.41,2.37,19.52,19.52,0,0,1-4.07,1.76,18.11,18.11,0,0,1-5.2.68,13.13,13.13,0,0,1-5-.89,10.55,10.55,0,0,1-6.11-6.14,12.38,12.38,0,0,1-.84-4.58,11.91,11.91,0,0,1,1.2-5.4,14.79,14.79,0,0,1,3.26-4.31,23.16,23.16,0,0,1,4.79-3.38,45.8,45.8,0,0,1,5.83-2.65q3.1-1.17,6.37-2.06t6.36-1.71v-2.91a19.34,19.34,0,0,0-.63-5.32,9.38,9.38,0,0,0-1.81-3.51A6.64,6.64,0,0,0,241,99.54a11.17,11.17,0,0,0-3.74-.58,10,10,0,0,0-3.82.61,5.85,5.85,0,0,0-2.32,1.6,5.51,5.51,0,0,0-1.15,2.24,11,11,0,0,0-.3,2.57,12.76,12.76,0,0,1-.21,2.35,5.75,5.75,0,0,1-.71,2,3.78,3.78,0,0,1-1.4,1.38,4.54,4.54,0,0,1-2.27.51,4.43,4.43,0,0,1-3.49-1.55,5.75,5.75,0,0,1-1.35-3.9,7,7,0,0,1,1.51-4.31A12.94,12.94,0,0,1,225.84,99a23.58,23.58,0,0,1,6-2.29,29.92,29.92,0,0,1,7.18-.84,29,29,0,0,1,7.74.89,13.92,13.92,0,0,1,5.12,2.5,9.06,9.06,0,0,1,2.83,3.89,14.29,14.29,0,0,1,.86,5.1Zm-9.27-27.1a64.13,64.13,0,0,0-6.26,2.32,40.15,40.15,0,0,0-6,3.19,19.67,19.67,0,0,0-4.54,3.94,7.14,7.14,0,0,0-1.78,4.61,8.18,8.18,0,0,0,.64,3.21,9.08,9.08,0,0,0,1.68,2.68,8.32,8.32,0,0,0,2.39,1.83,6.13,6.13,0,0,0,2.83.69,10.73,10.73,0,0,0,3-.41,15.45,15.45,0,0,0,2.72-1.09,22.82,22.82,0,0,0,2.65-1.63c.89-.63,1.79-1.29,2.7-2Zm36.48,24.91a10.14,10.14,0,0,0,3.49-.58A9,9,0,0,0,289,139a7.67,7.67,0,0,0,1.81-2.19,5.26,5.26,0,0,0,.66-2.54,6.48,6.48,0,0,0-1.07-3.72,11.76,11.76,0,0,0-2.83-2.85,23.48,23.48,0,0,0-4-2.32L279,123.23q-2.31-1.1-4.56-2.37a20.22,20.22,0,0,1-4-3,13.5,13.5,0,0,1-2.83-3.88,11.62,11.62,0,0,1-1.07-5.19,11.45,11.45,0,0,1,1.2-5.2,12.41,12.41,0,0,1,3.31-4.12,15.34,15.34,0,0,1,5-2.7,19.93,19.93,0,0,1,6.37-1,27.09,27.09,0,0,1,4.33.33,14.42,14.42,0,0,1,3.95,1.25,17.19,17.19,0,0,1,3.85,2.62,30.38,30.38,0,0,1,4,4.46l-3.36,3a19.76,19.76,0,0,0-5.94-6.44,13,13,0,0,0-10.62-1.63,9.31,9.31,0,0,0-2.8,1.32,6.32,6.32,0,0,0-1.81,2,4.85,4.85,0,0,0-.64,2.4,5.82,5.82,0,0,0,1.18,3.64,12.44,12.44,0,0,0,3.08,2.83,27.06,27.06,0,0,0,4.33,2.32l5,2.14q2.55,1.1,5,2.36a23,23,0,0,1,4.33,2.93,13.42,13.42,0,0,1,3.08,3.85,10.65,10.65,0,0,1,1.18,5.09,14,14,0,0,1-1.1,5.53,11.9,11.9,0,0,1-3.31,4.46,16.48,16.48,0,0,1-5.55,3,25.16,25.16,0,0,1-7.82,1.09,27.44,27.44,0,0,1-4.18-.33,18.07,18.07,0,0,1-4.33-1.25,19.15,19.15,0,0,1-4.38-2.62,23.83,23.83,0,0,1-4.28-4.46l3.77-3.41a40.7,40.7,0,0,0,3.23,4.08,18.22,18.22,0,0,0,3.16,2.75,11.83,11.83,0,0,0,3.31,1.55A13.63,13.63,0,0,0,282.77,141.13Zm51.86-3.71a14,14,0,0,1-4.92,5.06,14.41,14.41,0,0,1-7.56,1.86,9.67,9.67,0,0,1-4.08-.79,7.37,7.37,0,0,1-2.85-2.21,9.44,9.44,0,0,1-1.66-3.41,17,17,0,0,1-.53-4.44V100.74h-8V98.45a13.08,13.08,0,0,0,6.39-1.4,11.75,11.75,0,0,0,4.13-3.83,20.09,20.09,0,0,0,2.52-5.6q.92-3.18,1.58-6.7h2.65v15.9h10.44v3.92H322.25v32.75A4.78,4.78,0,0,0,323.7,137a4.87,4.87,0,0,0,3.59,1.46,5.44,5.44,0,0,0,2.85-.77,8.45,8.45,0,0,0,2.19-1.88Zm6.06-38.92,6.47-2.65h2.7v47.47h-9.17Zm16.68-24.06C350,77.71,345,83.55,340.74,90.05c-.34,0-.38-.19-.45-.35a10.14,10.14,0,0,1,.86-10c2.23-3.46,5.57-5.39,9.23-6.86a33.28,33.28,0,0,1,15.12-2,2.43,2.43,0,0,1,.55.08.4.4,0,0,1,.27.23c.06.19-.12.25-.26.3-3.82,1.42-5.79,4.68-7.75,7.9-1.75,2.86-3.17,5.91-5.13,8.65a12.82,12.82,0,0,1-4.14,4,6.92,6.92,0,0,1-5.41.58,1.49,1.49,0,0,0-1.45.29A5.86,5.86,0,0,1,340,94.14a20.58,20.58,0,0,1,2.36-4.38,69.56,69.56,0,0,1,7.47-9.38,35.36,35.36,0,0,1,3.67-3.1c.24-.19.52-.33.64-.64s.32-.47.47-.37c.82.48,1.05-.3,1.36-.67S357,75,357.37,74.44Zm23.51,69.9a20.35,20.35,0,0,1-8.56-1.81,22,22,0,0,1-6.95-4.94,23.09,23.09,0,0,1-4.69-7.31,23.4,23.4,0,0,1-1.71-9,26.13,26.13,0,0,1,1.89-9.91,25.62,25.62,0,0,1,5.14-8.1,24.52,24.52,0,0,1,7.67-5.45,22.39,22.39,0,0,1,9.4-2,28.62,28.62,0,0,1,7.21.86A20.91,20.91,0,0,1,396,99.06a11.65,11.65,0,0,1,3.72,3.51A7.92,7.92,0,0,1,401,107a3.93,3.93,0,0,1-.53,2,5.57,5.57,0,0,1-1.43,1.6,7.56,7.56,0,0,1-2,1.1,6.35,6.35,0,0,1-2.21.41,5.6,5.6,0,0,1-2.24-.44,4.86,4.86,0,0,1-1.71-1.17,5.38,5.38,0,0,1-1.07-1.65,4.67,4.67,0,0,1-.38-1.84,13.27,13.27,0,0,0-.33-3,5.63,5.63,0,0,0-1.23-2.42,6,6,0,0,0-2.39-1.6,10.74,10.74,0,0,0-3.85-.59,12.24,12.24,0,0,0-5.65,1.28,12.61,12.61,0,0,0-4.23,3.43,15.64,15.64,0,0,0-2.65,5.1,20.79,20.79,0,0,0-.92,6.24,30.65,30.65,0,0,0,1.15,8.43,22.52,22.52,0,0,0,3.29,7,16.79,16.79,0,0,0,5.14,4.74,13,13,0,0,0,6.67,1.75,14.15,14.15,0,0,0,5.63-1,13.21,13.21,0,0,0,4.13-2.75,17.18,17.18,0,0,0,3-4,38.8,38.8,0,0,0,2.21-4.84l2.8,1.12a32.28,32.28,0,0,1-3.15,7.82,23.32,23.32,0,0,1-4.69,5.83,19.3,19.3,0,0,1-6.11,3.67A21,21,0,0,1,380.88,144.34Z"/></clipPath><radialGradient id="radial-gradient" cx="344.91" cy="61.07" fx="419.2990800119923" fy="-18.277229247587726" r="149.96" gradientTransform="matrix(1.47, -0.07, 0.03, 0.99, -248.01, 72.43)" gradientUnits="userSpaceOnUse"><stop offset="0" stop-color="#eadf8a"/><stop offset="0.64" stop-color="#4e9519"/><stop offset="0.73" stop-color="#398b0a"/></radialGradient><radialGradient id="radial-gradient-2" cx="77.22" cy="162.78" r="41.54" gradientTransform="translate(0 -81.39) scale(1 1.5)" gradientUnits="userSpaceOnUse"><stop offset="0" stop-color="#eadf8a"/><stop offset="1" stop-color="#398b0a"/></radialGradient><clipPath id="clip-path-2"><path class="cls-1" d="M43.45,32c5.26,24.67,4,49.13-.67,73.59A320.83,320.83,0,0,1,21,176.18a5.31,5.31,0,0,1-3.34,3.23c-2.8,1-5.54,2.12-8.63,3.32.9-3.28,2.54-5.88,3.8-8.63,2.12-4.62,4.36-9.19,6.61-13.74.49-1,.79-1.63-.55-2.2-16.07-6.85-17.54-21.41-15.53-35C5.06,111.8,9,101.08,12.93,90.35,18.7,74.55,25.67,59.21,30.44,43c2.4-8.12,4.38-16.32,4.27-24.87C34.64,11.82,33.59,5.74,29.39.62c-.16-.19-.14-.53-.34-1.33,7.08,4.23,12.45,9.59,17.6,15.12,15.89,17,26.68,36.76,30.42,59.93,3.11,19.25.88,37.74-9.13,54.83a68.4,68.4,0,0,1-25.18,24.92,89.21,89.21,0,0,1-8.2,4.15c2.22-7.46,4.41-14.37,6.34-21.35C46.41,117,50.57,96.82,50.65,76a154.73,154.73,0,0,0-5.79-41.82C44.62,33.34,44.61,33.34,43.45,32Z"/></clipPath><radialGradient id="radial-gradient-3" cx="40.17" cy="91.79" r="76.64" gradientUnits="userSpaceOnUse"><stop offset="0" stop-color="#badf8a"/><stop offset="1" stop-color="#398b0a"/></radialGradient><radialGradient id="radial-gradient-4" cx="40.17" cy="91.79" r="76.64" gradientTransform="translate(0 -45.89) scale(1 1.5)" xlink:href="#radial-gradient-2"/></defs><title>LumasticV1</title><g id="Text"><g class="cls-2"><ellipse class="cls-3" cx="235.82" cy="118.59" rx="265.52" ry="121.2"/></g></g><g id="Layer_3" data-name="Layer 3"><path class="cls-4" d="M104,163.62c-23.4-8.37-47-5.89-70.4-.49-.82-.66-.45-1.22-.26-1.71,4.13-10.94,11.76-17.85,23.24-20.62,12.34-3,23.94-.19,35.25,4.34,15,6,27.37,15.72,38.1,27.66a8.14,8.14,0,0,1,1.07,1.35,1.35,1.35,0,0,1,.12,1.08c-.28.55-.82.3-1.25.12-11.56-4.94-22.89-1.84-34.15,1.17-10,2.68-19.66,6.5-29.86,8.44-5.88,1.12-11.73,1.59-17.66,0a21.41,21.41,0,0,1-13.36-10.21A4.55,4.55,0,0,0,31,172.35c-2.44-.28-5-.09-7.73-1.6,4.88-2.5,9.75-3.62,14.58-4.78a214.38,214.38,0,0,1,36.7-5.08c4.89-.31,9.86.5,14.79.87a5.06,5.06,0,0,0,2.81-.07c.66-.31,1.7-.37,1.85.17.79,2.81,3,1.54,4.44,1.4C100.37,163.08,102.06,164.12,104,163.62Z"/><g class="cls-5"><path class="cls-6" d="M18.86,184.82a5.8,5.8,0,0,1-3.64,3.53c-3.07,1-6.06,2.31-9.44,3.63,1-3.59,2.78-6.43,4.16-9.43,2.31-5.05,4.76-10,7.21-15,.54-1.09.87-1.78-.59-2.41C-1,157.66-2.61,141.75-.41,126.91,1.43,114.49,5.76,102.79,10,91.06,16.33,73.81,24,57,29.16,39.39c2.62-8.88,4.78-17.84,4.67-27.18C33.74,5.27,32.6-1.36,28-6.95c-.18-.22-.16-.58-.38-1.46C35.38-3.79,41.24,2.07,46.87,8.11,64.22,26.71,76,48.27,80.1,73.58c3.4,21,1,41.22-10,59.89a74.62,74.62,0,0,1-27.52,27.22,95.38,95.38,0,0,1-9,4.53"/></g><g class="cls-5"><path class="cls-7" d="M18.86,184.82a5.8,5.8,0,0,1-3.64,3.53c-3.07,1-6.06,2.31-9.44,3.63,1-3.59,2.78-6.43,4.16-9.43,2.31-5.05,4.76-10,7.21-15,.54-1.09.87-1.78-.59-2.41C-1,157.66-2.61,141.75-.41,126.91,1.43,114.49,5.76,102.79,10,91.06,16.33,73.81,24,57,29.16,39.39c2.62-8.88,4.78-17.84,4.67-27.18C33.74,5.27,32.6-1.36,28-6.95c-.18-.22-.16-.58-.38-1.46C35.38-3.79,41.24,2.07,46.87,8.11,64.22,26.71,76,48.27,80.1,73.58c3.4,21,1,41.22-10,59.89a74.62,74.62,0,0,1-27.52,27.22,95.38,95.38,0,0,1-9,4.53"/></g></g></svg>